<svg fill="none" height="501" viewBox="0 0 800 501" width="800" xmlns="http://www.w3.org/2000/svg"><path d="m0 .900024h800v500h-800z" fill="#fff"/><g fill="#1d465c" opacity=".6"><path d="m161.724 217.605v10.559c.012.197-.018.395-.088.58s-.179.353-.319.493-.308.249-.493.319-.383.1-.581.088h-14.745v54.057c.012.198-.018.396-.088.581s-.179.353-.319.493-.308.248-.493.318c-.186.07-.383.101-.581.089h-12.343c-.197.012-.395-.019-.58-.089s-.354-.178-.494-.318-.248-.308-.318-.493c-.071-.185-.101-.383-.089-.581v-54.057h-14.712c-.198.012-.396-.018-.581-.088s-.353-.179-.493-.319-.249-.308-.319-.493-.1-.383-.088-.58v-10.559c-.012-.197.018-.395.088-.58s.179-.353.319-.493.308-.248.493-.318c.185-.071.383-.101.581-.089h44.729c.201-.017.402.01.591.078s.362.176.505.316c.144.14.256.31.328.498.072.187.103.388.09.588z"/><path d="m228.044 217.605v66.096c.012.198-.018.396-.088.581s-.179.353-.319.493-.308.248-.493.318-.383.101-.581.089h-12.342c-.198.012-.396-.019-.581-.089s-.353-.178-.493-.318-.249-.308-.319-.493-.101-.383-.089-.581v-25.639h-24.092v25.639c.012.198-.018.396-.088.581-.071.185-.179.353-.319.493s-.308.248-.494.318c-.185.07-.383.101-.58.089h-12.277c-.198.012-.395-.019-.581-.089-.185-.07-.353-.178-.493-.318s-.249-.308-.319-.493-.1-.383-.088-.581v-66.096c-.012-.197.018-.395.088-.58s.179-.353.319-.493.308-.248.493-.318c.186-.071.383-.101.581-.089h12.343c.197-.012.395.018.58.089.185.07.354.178.494.318s.248.308.318.493c.071.185.101.383.089.58v26.939h24.026v-26.939c-.012-.197.019-.395.089-.58s.179-.353.319-.493.308-.248.493-.318c.185-.071.383-.101.581-.089h12.342c.198-.012.396.018.581.089.185.07.353.178.493.318s.249.308.319.493.1.383.088.58z"/><path d="m281.759 273.143v10.558c.012.198-.018.396-.088.581s-.179.353-.319.493-.308.248-.493.318-.383.101-.581.089h-37.126c-.198.012-.396-.019-.581-.089s-.353-.178-.493-.318-.249-.308-.319-.493-.1-.383-.088-.581v-66.096c-.012-.197.018-.395.088-.58s.179-.353.319-.493.308-.248.493-.318c.185-.071.383-.101.581-.089h37.06c.198-.012.396.018.581.089.185.07.353.178.493.318s.249.308.319.493.101.383.089.58v10.559c.012.197-.019.395-.089.58s-.179.353-.319.493-.308.249-.493.319-.383.1-.581.088h-23.236v13.485h21.821c.198-.012.396.019.581.089s.353.178.493.318.249.308.319.493.1.383.088.581v10.541c.012.199-.018.397-.088.583s-.179.355-.318.496c-.14.141-.308.251-.493.323s-.383.105-.582.095h-21.821v14.982h23.236c.206-.023.415.001.61.068.196.068.374.178.522.323.148.144.262.32.334.514s.1.402.081.608z"/></g><g fill="#1d465c" opacity=".8"><path d="m355.157 217.605v66.096c.012.198-.019.396-.089.581s-.179.353-.319.493c-.14.139-.308.248-.493.318s-.383.1-.581.088h-14.021c-.365.042-.734-.025-1.062-.192-.328-.166-.599-.425-.781-.745l-24.224-43.549v43.006c.012.198-.018.396-.088.581s-.179.353-.319.493c-.14.139-.308.248-.493.318-.186.07-.384.1-.581.088h-12.343c-.197.012-.395-.018-.58-.088s-.354-.179-.494-.318c-.14-.14-.248-.308-.319-.493-.07-.185-.1-.383-.088-.581v-66.096c-.012-.197.018-.395.088-.58.071-.185.179-.353.319-.493s.309-.248.494-.319c.185-.07.383-.1.58-.088h13.923c.36-.023.719.057 1.034.232s.573.437.743.755l24.389 43.614v-43.121c-.012-.197.018-.395.088-.58s.179-.353.319-.493.308-.248.493-.319c.185-.07.383-.1.581-.088h12.342c.198-.012.396.018.581.088.185.071.353.179.493.319s.249.308.319.493.101.383.089.58z"/><path d="m408.871 273.143v10.558c.012.198-.018.396-.088.581s-.179.353-.319.493c-.14.139-.308.248-.493.318s-.383.1-.581.088h-37.126c-.198.012-.395-.018-.581-.088-.185-.07-.353-.179-.493-.318-.14-.14-.249-.308-.319-.493s-.1-.383-.088-.581v-66.096c-.012-.197.018-.395.088-.58s.179-.353.319-.493.308-.248.493-.319c.186-.07.383-.1.581-.088h37.028c.197-.012.395.018.58.088.185.071.354.179.494.319s.248.308.318.493c.071.185.101.383.089.58v10.559c.012.197-.018.395-.089.58-.07.185-.178.353-.318.493s-.309.248-.494.319c-.185.07-.383.1-.58.088h-23.204v13.485h21.821c.198-.012.396.018.581.089.185.07.353.178.493.318s.249.308.319.493.1.383.088.58v10.542c.012.198-.018.397-.088.583s-.178.355-.318.496-.308.251-.493.323-.383.104-.582.095h-21.821v14.982h23.302c.201-.012.402.018.59.09.187.072.357.184.498.328.14.143.248.315.316.504s.094.391.077.591z"/><path d="m474.402 285.181h-13c-.36.035-.723-.035-1.044-.201s-.587-.422-.767-.736l-12.441-20.82-12.408 20.82c-.17.318-.428.58-.743.755-.316.175-.675.255-1.034.232h-13.034c-1.185 0-1.646-.691-.988-1.776l20.143-33.55-19.155-32.004c-.593-1.085-.198-1.776.987-1.776h13.034c.36-.023.719.057 1.034.232s.573.437.743.755l11.52 19.143 11.52-19.143c.17-.318.428-.58.743-.755s.674-.255 1.034-.232h13.034c1.185 0 1.645.691.987 1.776l-19.287 31.955 20.143 33.549c.625 1.086.197 1.776-1.021 1.776z"/><path d="m532.593 217.605v10.559c.012.197-.018.395-.088.58s-.179.353-.319.493-.308.248-.493.319c-.185.07-.383.1-.581.088h-14.712v54.057c.012.198-.018.396-.088.581-.071.185-.179.353-.319.493-.14.139-.308.248-.493.318-.186.07-.384.1-.581.088h-12.343c-.197.012-.395-.018-.58-.088-.186-.07-.354-.179-.494-.318-.14-.14-.248-.308-.319-.493-.07-.185-.1-.383-.088-.581v-54.057h-14.712c-.198.012-.396-.018-.581-.088-.185-.071-.353-.179-.493-.319s-.249-.308-.319-.493-.1-.383-.088-.58v-10.559c-.012-.197.018-.395.088-.58s.179-.353.319-.493.308-.248.493-.319c.185-.07.383-.1.581-.088h44.729c.198-.012.396.018.581.088.185.071.353.179.493.319s.249.308.319.493.1.383.088.58z"/></g><path d="m635.545 172.84c15.452-.004 30.557 4.572 43.406 13.149 12.849 8.576 22.864 20.767 28.779 35.032 5.916 14.265 7.465 29.963 4.453 45.108-3.013 15.144-10.452 29.056-21.376 39.976-10.925 10.92-24.845 18.357-39.999 21.371-15.154 3.013-30.862 1.468-45.138-4.44-14.275-5.909-26.477-15.915-35.062-28.753-8.584-12.839-13.166-27.934-13.166-43.375.021-20.695 8.257-40.537 22.899-55.173 14.642-14.635 34.495-22.869 55.204-22.895zm0-11.94c-17.813 0-35.227 5.279-50.039 15.169-14.811 9.89-26.355 23.948-33.172 40.395-6.817 16.446-8.601 34.544-5.126 52.004 3.476 17.46 12.054 33.498 24.65 46.086s28.645 21.16 46.116 24.633 35.581 1.691 52.039-5.122c16.457-6.812 30.524-18.349 40.421-33.151 9.896-14.802 15.179-32.204 15.179-50.006.002-11.82-2.326-23.526-6.852-34.447-4.525-10.921-11.16-20.845-19.524-29.203s-18.293-14.988-29.222-19.511c-10.928-4.522-22.641-6.849-34.47-6.847z" fill="#fff3d5"/><path d="m635.545 201.587c9.764 0 19.31 2.894 27.428 8.315 8.119 5.421 14.447 13.127 18.184 22.142s4.714 18.935 2.809 28.506-6.607 18.362-13.511 25.262c-6.905 6.9-15.702 11.599-25.278 13.502-9.577 1.904-19.504.927-28.525-2.807-9.021-3.735-16.732-10.058-22.157-18.172-5.425-8.113-8.32-17.652-8.32-27.41 0-13.085 5.201-25.635 14.46-34.887 9.259-9.253 21.816-14.451 34.91-14.451zm0-13.469c-12.427 0-24.575 3.683-34.907 10.582-10.333 6.899-18.386 16.706-23.142 28.179-4.756 11.474-6 24.099-3.575 36.279 2.424 12.18 8.408 23.368 17.195 32.15 8.787 8.781 19.983 14.761 32.171 17.184s24.822 1.179 36.303-3.573c11.481-4.753 21.293-12.801 28.197-23.126 6.905-10.326 10.59-22.466 10.59-34.885.002-8.246-1.622-16.412-4.779-24.031s-7.785-14.542-13.62-20.373c-5.834-5.831-12.762-10.456-20.386-13.611s-15.795-4.777-24.047-4.775z" fill="#fff3d5"/><g fill="#1d465c"><path d="m567.974 238.327h-1.185c-1.215.124-2.419.333-3.604.625l-.362.099h-.115l-.593.181c-1.589.455-3.023 1.337-4.147 2.549.553-4.672 1.528-9.285 2.913-13.782h24.685c.198.012.397-.018.583-.088s.355-.178.496-.318.252-.307.324-.492.104-.384.095-.582v-8.914c.009-.198-.023-.396-.095-.581s-.183-.353-.324-.492c-.141-.14-.31-.248-.496-.318s-.385-.1-.583-.089h-32.008c-.328-.02-.653.071-.923.259-.269.188-.466.462-.558.777-4.345 10.716-6.58 22.169-6.583 33.731.047.254.167.488.345.675.179.187.407.318.659.377l9.281 2.846c.346.142.73.163 1.089.058s.671-.328.886-.634c1.488-1.564 3.409-2.649 5.518-3.114 2.108-.464 4.308-.289 6.316.505 2.007.794 3.732 2.17 4.952 3.95 1.219 1.781 1.879 3.885 1.893 6.043.048 1.449-.194 2.893-.711 4.247-.518 1.354-1.301 2.592-2.304 3.64-1.002 1.047-2.204 1.885-3.534 2.462-1.331.577-2.764.883-4.214.9-1.938.033-3.847-.474-5.513-1.464-1.052-.636-1.996-1.436-2.798-2.368-.263-.329-.526-.658-.773-1.003-.124-.168-.283-.306-.467-.404s-.388-.154-.596-.163c-.208-.01-.416.028-.608.109s-.363.204-.502.359l-8.59 5.921c-.166.066-.314.173-.43.309-.117.137-.198.3-.236.475-.039.175-.035.357.012.53.048.172.136.331.259.462 1.371 2.344 3.215 4.377 5.414 5.97.663.496 1.356.952 2.074 1.365l.823.444.181.099c1.087.575 2.214 1.069 3.373 1.48h.264c.477.164.987.312 1.497.46l.56.132 1.316.279.659.115 1.382.165h.625c.675 0 1.366.082 2.074.082h.296c14.449-.131 24.866-9.571 24.866-24.767.035-3.022-.531-6.021-1.664-8.823s-2.811-5.351-4.937-7.5-4.658-3.856-7.448-5.02c-2.791-1.164-5.785-1.764-8.809-1.764z"/><path d="m635.546 230.335c4.072-.004 8.054 1.2 11.442 3.459s6.029 5.471 7.59 9.23c1.56 3.759 1.97 7.896 1.178 11.888-.793 3.992-2.752 7.659-5.631 10.538-2.878 2.879-6.546 4.84-10.54 5.636-3.994.795-8.135.388-11.897-1.168-3.763-1.557-6.98-4.194-9.242-7.578-2.263-3.383-3.471-7.362-3.471-11.432.004-5.452 2.172-10.68 6.029-14.537 3.856-3.857 9.086-6.028 14.542-6.036zm0-14.999c-7.04 0-13.923 2.086-19.776 5.995-5.854 3.909-10.416 9.464-13.111 15.964-2.694 6.5-3.399 13.653-2.025 20.553 1.373 6.901 4.763 13.239 9.742 18.214 4.978 4.975 11.32 8.363 18.225 9.735 6.905 1.373 14.062.668 20.567-2.024 6.504-2.692 12.063-7.252 15.975-13.102 3.911-5.85 5.999-12.727 5.999-19.763.002-4.672-.917-9.298-2.706-13.615-1.788-4.317-4.41-8.239-7.715-11.543-3.306-3.304-7.231-5.924-11.551-7.711-4.319-1.787-8.949-2.705-13.624-2.703z"/></g></svg>