<svg fill="none" height="500" viewBox="0 0 800 500" width="800" xmlns="http://www.w3.org/2000/svg"><path d="m0 0h800v500h-800z" fill="#5c6b2e"/><g fill="#f9f1ec"><path d="m326 142.36c0-2.56 0-4.64-2.4-4.64-1.36 0-3.44.24-4.4.24h-28.64c-1.04 0-3.04-.24-4.48-.24-2.32 0-2.32 2.08-2.32 4.64 0 2.24 0 9.04 1.84 9.04 1.92 0 2-4.08 3.04-6.24 1.36-2.8 4.48-3.6 7.68-3.6h4.8v46.72c0 3.6-1.36 4.16-2.48 4.16-.96 0-1.12.32-1.12.96 0 1.52 1.84 1.6 3.04 1.6h8.56c1.2 0 3.04-.08 3.04-1.6 0-.64-.24-.96-1.04-.96-1.12 0-2.56-.56-2.56-4.16v-46.72h4.8c3.2 0 6.4.8 7.76 3.6 1.04 2.16 1.12 6.24 3.04 6.24 1.84 0 1.84-6.8 1.84-9.04z"/><path d="m368.021 193c0-.4-.24-1.04-1.12-1.04-1.12 0-2.16 0-2.16-3.84v-21.04c0-10-3.92-12.24-10.16-12.24-4.72 0-10.88 3.84-13.76 9.28v-23.2c0-1.6 0-3.76-1.84-3.76h-5.04c-1.28 0-3.04.4-3.04 1.92 0 .56.24 1.12 1.04 1.12 1.44 0 2.24.4 2.24 3.84v44.08c0 3.84-1.12 3.84-2.24 3.84-.8 0-1.04.64-1.04 1.04 0 1.6 1.76 2 2.96 2h7.28c1.6 0 2.96-.4 2.96-2 0-.4-.24-1.04-1.12-1.04-1.12 0-2.16 0-2.16-3.84v-13.52c0-6.96 3.92-14.64 10.88-14.64 5.44 0 6.4 4.08 6.4 10.56v17.6c0 3.84-1.12 3.84-2.24 3.84-.8 0-1.04.64-1.04 1.04 0 1.6 1.84 2 2.96 2h7.28c1.6 0 2.96-.4 2.96-2z"/><path d="m406.906 170.92c0-9.12-5.44-16.08-15.76-16.08-10.24 0-17.04 7.44-17.04 21.2 0 13.04 7.2 20 17.28 20 6.64 0 12.16-3.12 14.64-8.08.32-.56.4-.88.4-1.68 0-.96-.8-1.44-1.6-1.44-.88 0-1.52.8-1.84 1.36-2.4 3.2-4.96 5.44-10.16 5.44-8.96 0-11.52-8.72-11.52-16.32h22.64c1.36 0 2.96-.64 2.96-4.4zm-7.36-2.16c0 2.48-.32 3.04-2.64 3.04h-14c-1.28 0-1.52 0-1.52-1.52 0-3.6 1.52-12 9.52-12 6.64 0 8.64 5.84 8.64 10.48z"/><path d="m322.88 260.04c0-4.48-1.2-7.6-5.2-10.88-5.44-4.56-13.12-6.72-20.16-11.28-4.24-2.72-4.48-5.28-4.48-8.48 0-4.96 3.2-8.72 10-8.72 7.36 0 9.44 2.88 10.8 6.64.96 2.48.96 5.52 2.72 5.52 2.32 0 3.52-4.48 3.52-8.16 0-2.88-1.84-4.72-4.88-5.84-4-1.44-8.48-1.84-11.36-1.84-10.8 0-17.84 6-17.84 14.72 0 6 3.36 9.52 6.8 11.84 5.28 3.44 10.72 5.6 16.56 8.96 3.12 1.84 6.48 4.24 6.48 9.2 0 7.12-4.96 10.88-12.4 10.88-5.68 0-9.04-2.24-10.72-4.88-3.04-4.56-2.4-8.64-4.4-8.64-2.16 0-3.36 2.56-3.36 7.2 0 7.44 9.12 10 18.48 10 12.64 0 19.44-8.48 19.44-16.24z"/><path d="m366.704 255c0-14.88-6.64-20.16-15.28-20.16-3.76 0-9.2 1.04-12.4 6.48 0-3.12 0-5.2-2.08-5.2h-4.88c-1.44 0-2.96.56-2.96 1.92 0 .56.32 1.12 1.04 1.12 1.76 0 2.24.8 2.24 4.08v46.08c0 3.76-1.12 4-2.32 4-.88 0-.96.56-.96 1.04 0 1.6 1.68 2 2.96 2h7.36c1.52 0 2.88-.4 2.88-2 0-.48-.16-1.04-1.04-1.04-1.12 0-2.24 0-2.24-3.92v-17.52c2.56 3.2 6.08 4.16 10.56 4.16 11.36 0 17.12-9.44 17.12-21.04zm-7.2-.88c0 11.76-3.76 18.24-10.96 18.24-4.88 0-9.52-3.12-9.52-10.64v-11.04c0-6.16 3.28-11.52 9.76-11.52 7.36 0 10.72 5.68 10.72 14.96z"/><path d="m399.416 239.08c0-2.16-1.28-3.68-5.28-3.68s-8.8 2.8-11.44 8c0-1.28.08-3.12.08-4.24 0-1.76-.24-3.04-1.84-3.04h-5.12c-1.28 0-3.04.4-3.04 2 0 .72.4 1.04 1.2 1.04 1.52 0 2.08.8 2.08 3.92v25.04c0 3.84-1.12 3.84-2.32 3.84-.88 0-.96.64-.96 1.04 0 1.6 1.68 2 2.96 2h7.36c1.52 0 2.88-.4 2.88-2 0-.4-.16-1.04-1.04-1.04-1.12 0-2.24 0-2.24-3.84v-15.04c0-5.92 2.64-12.56 7.84-12.56 3.44 0 4 3.52 5.92 3.52 1.36 0 2.96-1.6 2.96-4.96z"/><path d="m439.253 273.16c0-.72-.08-1.2-1.52-1.2-.88 0-1.76-.72-1.76-3.2v-28.72c0-1.92-.08-3.92-1.76-3.92h-5.12c-1.28 0-3.12.4-3.12 1.92 0 .4.16 1.12 1.12 1.12 1.52 0 2.24.8 2.24 4v15.68c0 4.72-4.56 11.92-10.24 11.92-6.24 0-6.24-4.8-6.24-10.96v-19.76c0-2.16 0-3.92-1.68-3.92h-5.2c-1.12 0-3.04.4-3.04 1.92 0 .56.32 1.12 1.2 1.12.96 0 2.08.08 2.08 4v20.08c0 7.92 2.72 12.56 9.28 12.56 4.48 0 9.28-1.6 13.84-9.04 0 1.68-.16 3.44-.16 4.88 0 1.92.32 3.36 1.76 3.36h5.2c1.36 0 3.12-.24 3.12-1.84z"/><path d="m476.396 267c0-1.12-.88-1.44-1.6-1.44-.64 0-1.04.24-1.68 1.04-1.6 2.08-4.08 5.04-8.8 5.04-6.4 0-11.68-4.88-11.68-17.36 0-10.96 4.72-16 10.24-16 2.24 0 3.52.64 4.56 1.52 3.6 3.2 3.2 8.24 5.68 8.24 2 0 2.88-4.16 2.88-7.36 0-1.36-.56-2.48-2.08-3.2-3.12-1.6-6.56-2.64-10.72-2.64-7.28 0-17.6 4.8-17.6 21.28 0 11.68 5.28 19.92 16.72 19.92 7.04 0 11.84-3.44 13.76-7.52.24-.48.32-.88.32-1.52z"/><path d="m514.406 250.92c0-9.12-5.44-16.08-15.76-16.08-10.24 0-17.04 7.44-17.04 21.2 0 13.04 7.2 20 17.28 20 6.64 0 12.16-3.12 14.64-8.08.32-.56.4-.88.4-1.68 0-.96-.8-1.44-1.6-1.44-.88 0-1.52.8-1.84 1.36-2.4 3.2-4.96 5.44-10.16 5.44-8.96 0-11.52-8.72-11.52-16.32h22.64c1.36 0 2.96-.64 2.96-4.4zm-7.36-2.16c0 2.48-.32 3.04-2.64 3.04h-14c-1.28 0-1.52 0-1.52-1.52 0-3.6 1.52-12 9.52-12 6.64 0 8.64 5.84 8.64 10.48z"/><path d="m322.88 340.04c0-4.48-1.2-7.6-5.2-10.88-5.44-4.56-13.12-6.72-20.16-11.28-4.24-2.72-4.48-5.28-4.48-8.48 0-4.96 3.2-8.72 10-8.72 7.36 0 9.44 2.88 10.8 6.64.96 2.48.96 5.52 2.72 5.52 2.32 0 3.52-4.48 3.52-8.16 0-2.88-1.84-4.72-4.88-5.84-4-1.44-8.48-1.84-11.36-1.84-10.8 0-17.84 6-17.84 14.72 0 6 3.36 9.52 6.8 11.84 5.28 3.44 10.72 5.6 16.56 8.96 3.12 1.84 6.48 4.24 6.48 9.2 0 7.12-4.96 10.88-12.4 10.88-5.68 0-9.04-2.24-10.72-4.88-3.04-4.56-2.4-8.64-4.4-8.64-2.16 0-3.36 2.56-3.36 7.2 0 7.44 9.12 10 18.48 10 12.64 0 19.44-8.48 19.44-16.24z"/><path d="m360.224 347c0-1.12-.88-1.44-1.6-1.44-.64 0-1.04.24-1.68 1.04-1.6 2.08-4.08 5.04-8.8 5.04-6.4 0-11.68-4.88-11.68-17.36 0-10.96 4.72-16 10.24-16 2.24 0 3.52.64 4.56 1.52 3.6 3.2 3.2 8.24 5.68 8.24 2 0 2.88-4.16 2.88-7.36 0-1.36-.56-2.48-2.08-3.2-3.12-1.6-6.56-2.64-10.72-2.64-7.28 0-17.6 4.8-17.6 21.28 0 11.68 5.28 19.92 16.72 19.92 7.04 0 11.84-3.44 13.76-7.52.24-.48.32-.88.32-1.52z"/><path d="m402.474 353c0-.4-.24-1.04-1.12-1.04-1.12 0-2.16 0-2.16-3.84v-21.04c0-10-3.92-12.24-10.16-12.24-4.72 0-10.88 3.84-13.76 9.28v-23.2c0-1.6 0-3.76-1.84-3.76h-5.04c-1.28 0-3.04.4-3.04 1.92 0 .56.24 1.12 1.04 1.12 1.44 0 2.24.4 2.24 3.84v44.08c0 3.84-1.12 3.84-2.24 3.84-.8 0-1.04.64-1.04 1.04 0 1.6 1.76 2 2.96 2h7.28c1.6 0 2.96-.4 2.96-2 0-.4-.24-1.04-1.12-1.04-1.12 0-2.16 0-2.16-3.84v-13.52c0-6.96 3.92-14.64 10.88-14.64 5.44 0 6.4 4.08 6.4 10.56v17.6c0 3.84-1.12 3.84-2.24 3.84-.8 0-1.04.64-1.04 1.04 0 1.6 1.84 2 2.96 2h7.28c1.6 0 2.96-.4 2.96-2z"/><path d="m444.799 335.48c0-13.2-6.64-20.64-18.24-20.64-9.2 0-18 6.32-18 20.4 0 12.4 6.64 20.8 18.32 20.8 9.12 0 17.92-7.44 17.92-20.56zm-7.12 1.2c0 10.4-3.92 15.92-10.8 15.92-7.2 0-11.2-7.68-11.2-18.56 0-10.96 3.84-15.76 10.88-15.76s11.12 6.88 11.12 18.4z"/><path d="m487.221 335.48c0-13.2-6.64-20.64-18.24-20.64-9.2 0-18 6.32-18 20.4 0 12.4 6.64 20.8 18.32 20.8 9.12 0 17.92-7.44 17.92-20.56zm-7.12 1.2c0 10.4-3.92 15.92-10.8 15.92-7.2 0-11.2-7.68-11.2-18.56 0-10.96 3.84-15.76 10.88-15.76s11.12 6.88 11.12 18.4z"/><path d="m496.603 348.12c0 3.84-1.12 3.84-2.32 3.84-.72 0-.96.64-.96 1.04 0 1.6 1.76 2 3.04 2h7.12c1.6 0 3.04-.4 3.04-2 0-.4-.16-1.04-1.12-1.04-1.04 0-2.16 0-2.16-3.84v-47.2c0-1.6 0-3.76-1.84-3.76h-5.04c-1.28 0-3.04.4-3.04 1.92 0 .56.24 1.12 1.04 1.12 1.44 0 2.24.4 2.24 3.84z"/></g></svg>