<svg fill="none" height="500" viewBox="0 0 800 500" width="800" xmlns="http://www.w3.org/2000/svg"><path d="m0 0h800v500h-800z" fill="#eee8e5"/><g fill="#ea5501"><path d="m183.4 206.58c24.576 0 33.408 15.744 33.408 34.56 0 21.12-13.728 31.872-29.376 31.872h-9.024c-8.16 0-11.808-1.248-11.808-7.488v-58.944zm-36.48-4.224v3.168c7.2.288 11.904 1.248 11.904 7.968v52.608c0 6.72-4.704 7.68-11.904 7.968v3.168h40.608c20.16 0 37.92-13.92 37.92-39.552 0-18.24-12-35.328-40.032-35.328z"/><path d="m258.622 226.068c-14.784 0-24.672 11.424-24.672 27.744 0 12.768 8.544 24.384 24.48 24.384 12 0 18.528-6.528 21.216-13.92l-2.4-.864c-4.32 5.472-8.736 8.64-16.992 8.64-12.384 0-20.544-9.312-19.584-23.616h38.784v-2.304c0-11.424-7.104-20.064-20.832-20.064zm-1.92 4.896c9.6 0 14.784 5.76 14.784 13.344h-30.144c1.632-7.872 7.488-13.344 15.36-13.344z"/><path d="m304.279 278.196c11.328 0 18.72-5.568 18.72-14.016 0-8.544-4.608-12.576-13.632-15.264l-7.296-2.208c-5.472-1.632-8.256-3.552-8.256-8.256 0-5.664 4.224-8.16 9.792-8.16 7.488 0 12.096 3.648 13.536 12.288h3.168v-12.384c-4.512-2.496-9.696-4.128-16.224-4.128-10.176 0-16.8 5.376-16.8 13.344 0 8.256 4.608 11.52 12.48 13.92l6.528 2.016c5.856 1.92 10.176 3.84 10.176 9.504 0 6.432-5.088 9.12-11.712 9.12-8.256 0-13.344-4.8-15.456-13.632h-2.88l.576 12.96c3.744 2.784 9.792 4.896 17.28 4.896z"/><path d="m347.299 236.532.48-10.272h-3.168l-12.288 4.608v1.92l7.68 2.496v33.696c0 4.416-3.744 4.896-8.16 5.472v2.784h23.616v-2.784c-4.416-.576-8.16-1.056-8.16-5.472zm-9.984-25.824c0 3.168 2.4 5.568 5.568 5.568s5.664-2.4 5.664-5.568-2.496-5.664-5.664-5.664-5.568 2.496-5.568 5.664z"/><path d="m385.474 226.068c-12.48 0-21.312 7.2-21.312 19.2 0 6.144 2.688 10.848 7.68 14.208-4.608 2.208-8.16 4.704-8.16 9.888 0 3.456 1.824 6.432 5.856 7.776-5.184 2.4-9.024 5.184-9.024 10.848 0 6.912 6.528 13.248 22.656 13.248 18.144 0 28.704-7.488 28.704-17.184 0-8.448-5.856-12.672-15.072-12.672h-22.176c-3.072 0-4.8-1.536-4.8-4.32s1.92-4.416 4.32-6.336c2.016.864 6.432 1.824 10.464 1.824 11.52 0 20.256-6.24 20.256-17.664 0-6.144-3.552-11.328-8.256-13.344v-.192l10.944 1.44h3.648v-5.76l-17.568.384c-2.112-.768-4.992-1.344-8.16-1.344zm10.176 51.84c5.856 0 9.888 1.92 9.888 7.2 0 7.68-7.968 12.096-20.448 12.096-9.696 0-17.28-3.744-17.28-10.848 0-3.552 1.248-6.048 4.032-8.448zm-9.696-19.2c-9.312 0-14.208-6.432-14.208-15.84 0-6.912 3.84-12.384 11.04-12.384 9.312 0 14.208 6.432 14.208 15.84 0 6.912-3.84 12.384-11.04 12.384z"/><path d="m461.104 268.98c0 4.416-3.744 4.896-8.16 5.472v2.784h23.616v-2.784c-4.416-.576-8.16-1.056-8.16-5.472v-27.168c0-11.424-6.72-15.744-16.032-15.744-8.16 0-15.552 5.28-19.776 9.888l.48-9.696h-3.168l-12.288 4.608v1.92l7.68 2.496v33.696c0 4.416-3.744 4.896-8.16 5.472v2.784h23.616v-2.784c-4.416-.576-8.16-1.056-8.16-5.472v-29.184c4.416-4.032 11.52-7.584 17.376-7.584 6.816 0 11.136 2.784 11.136 10.656z"/><path d="m496.904 207.732.48-8.256h-3.168l-12.288 5.184v1.824l7.68 1.536v60.96c0 4.416-3.744 4.896-8.16 5.472v2.784h23.616v-2.784c-4.416-.576-8.16-1.056-8.16-5.472z"/><path d="m527.917 236.532.48-10.272h-3.168l-12.288 4.608v1.92l7.68 2.496v33.696c0 4.416-3.744 4.896-8.16 5.472v2.784h23.616v-2.784c-4.416-.576-8.16-1.056-8.16-5.472zm-9.984-25.824c0 3.168 2.4 5.568 5.568 5.568s5.664-2.4 5.664-5.568-2.496-5.664-5.664-5.664-5.568 2.496-5.568 5.664z"/><path d="m587.404 268.98c0 4.416-3.744 4.896-8.16 5.472v2.784h23.616v-2.784c-4.416-.576-8.16-1.056-8.16-5.472v-27.168c0-11.424-6.72-15.744-16.032-15.744-8.16 0-15.552 5.28-19.776 9.888l.48-9.696h-3.168l-12.288 4.608v1.92l7.68 2.496v33.696c0 4.416-3.744 4.896-8.16 5.472v2.784h23.616v-2.784c-4.416-.576-8.16-1.056-8.16-5.472v-29.184c4.416-4.032 11.52-7.584 17.376-7.584 6.816 0 11.136 2.784 11.136 10.656z"/><path d="m632.516 226.068c-14.784 0-24.672 11.424-24.672 27.744 0 12.768 8.544 24.384 24.48 24.384 12 0 18.528-6.528 21.216-13.92l-2.4-.864c-4.32 5.472-8.736 8.64-16.992 8.64-12.384 0-20.544-9.312-19.584-23.616h38.784v-2.304c0-11.424-7.104-20.064-20.832-20.064zm-1.92 4.896c9.6 0 14.784 5.76 14.784 13.344h-30.144c1.632-7.872 7.488-13.344 15.36-13.344z"/></g><g stroke="#ea5501" stroke-width="3.17"><path d="m146.92 288.335h216.544"/><path d="m409.134 288.335h244.406"/></g></svg>