<svg fill="none" height="500" viewBox="0 0 800 500" width="800" xmlns="http://www.w3.org/2000/svg"><path d="m0 0h800v500h-800z" fill="#fce4dc"/><g fill="#47326c"><path clip-rule="evenodd" d="m189 197h48.654c17.557 0 28.653 7.56 28.653 23.289 0 17.557-11.949 24.142-29.263 24.142h-18.046v36.457h-9.998v-36.457h-10.002v36.457h-9.998zm20 43.407v-39.383h-10.002v39.383zm9.998 0v-39.383h17.68c13.168 0 19.265 7.437 19.265 19.508 0 11.706-5.487 19.875-18.411 19.875z" fill-rule="evenodd"/><path d="m305.459 219.191c-9.389 0-15.973 7.072-18.412 13.534v-12.071h-9.266v60.234h9.51v-34.994c0-14.144 7.316-20.362 17.436-20.362 1.951 0 3.17.122 4.024.243v-6.34c-.732-.122-1.707-.244-3.292-.244z"/><path clip-rule="evenodd" d="m370.14 250.771c0 16.948-10.242 31.58-29.141 31.58-18.9 0-29.142-14.632-29.142-31.58 0-16.826 10.242-31.58 29.142-31.58 18.899 0 29.141 14.754 29.141 31.58zm-48.284 0c0 16.339 6.096 28.288 19.143 28.288 13.046 0 19.143-12.071 19.143-28.288 0-16.095-6.097-28.288-19.143-28.288-13.047 0-19.143 12.071-19.143 28.288z" fill-rule="evenodd"/><path d="m405.087 282.351c13.9 0 24.996-7.438 24.996-19.387 0-9.876-7.072-13.656-18.9-16.46l-8.9-2.073c-7.316-1.707-12.071-4.146-12.071-10.486 0-6.584 5.486-11.706 14.143-11.706 10.243 0 15.607 5.609 16.583 16.217l7.56-1.341c-1.586-11.218-10.608-17.924-23.655-17.924-13.656 0-23.41 7.316-23.41 17.314 0 9.145 6.584 13.656 15.607 15.729l8.901 2.073c11.949 2.804 15.363 5.365 15.363 11.461 0 7.804-4.878 13.535-15.485 13.535-11.828 0-18.412-7.072-19.509-19.509l-7.682 1.219c1.22 14.388 11.949 21.338 26.459 21.338z"/><path clip-rule="evenodd" d="m453.04 269.548v33.897h-9.511v-82.791h9.511v11.706c2.804-6.828 9.388-13.169 20.85-13.169 16.094 0 27.312 12.681 27.312 31.58s-11.218 31.58-27.312 31.58c-11.34 0-17.802-6.219-20.85-12.803zm-.366-18.777c0 16.095 7.194 28.288 19.387 28.288 12.924 0 19.265-11.827 19.265-28.288 0-16.46-6.341-28.288-19.265-28.288-12.193 0-19.387 12.193-19.387 28.288z" fill-rule="evenodd"/><path clip-rule="evenodd" d="m566.299 249.43c0-18.29-11.461-30.239-26.702-30.239-15.486 0-28.41 11.584-28.41 31.702 0 20.484 12.193 31.458 28.531 31.458 15.729 0 22.801-9.998 25.118-19.753l-3.902-.609c-2.194 10.242-9.266 16.704-19.265 16.704-13.168 0-20.118-10.608-20.362-28.166h44.992zm-44.87-2.317c.854-14.022 6.096-24.63 18.168-24.63 11.705 0 15.607 10.486 15.972 24.63z" fill-rule="evenodd"/><path d="m589.252 232.725c2.439-6.462 9.023-13.534 18.412-13.534 1.585 0 2.56.122 3.292.244v6.34c-.854-.121-2.073-.243-4.024-.243-10.12 0-17.436 6.218-17.436 20.362v34.994h-9.51v-60.234h9.266z"/></g></svg>