<svg width="800" height="500" viewBox="0 0 800 500" fill="none" xmlns="http://www.w3.org/2000/svg">
<rect width="800" height="500" fill="#FCF8F8"/>
<path d="M288.975 321.078V325.292H280.501V329.134H287.757V333.163H280.501V339.629H276V321.078H288.975Z" fill="#3C71DD"/>
<path d="M303.477 340C298.313 340 294.156 335.68 294.156 330.353C294.156 325.027 298.313 320.707 303.477 320.707C308.614 320.707 312.797 325.027 312.797 330.353C312.797 335.68 308.614 340 303.477 340ZM303.477 335.76C306.072 335.76 308.296 333.534 308.296 330.353C308.296 327.173 306.072 324.947 303.477 324.947C300.855 324.947 298.657 327.173 298.657 330.353C298.657 333.534 300.855 335.76 303.477 335.76Z" fill="#3C71DD"/>
<path d="M334.609 339.629H329.525L325.977 333.322H323.964V339.629H319.463V321.078H327.459C331.299 321.078 334 323.675 334 327.226C334 329.558 332.623 331.493 330.372 332.527L334.609 339.629ZM327.062 325.027H323.885V329.532H327.062C328.439 329.532 329.445 328.578 329.445 327.279C329.445 325.981 328.439 325.027 327.062 325.027Z" fill="#3C71DD"/>
<path d="M360.305 340C355.168 340 351.011 335.68 351.011 330.353C351.011 325.027 355.168 320.707 360.305 320.707C365.733 320.707 368.328 324.868 368.964 327.73L364.356 327.942C363.986 326.617 362.662 324.947 360.305 324.947C357.71 324.947 355.512 327.173 355.512 330.353C355.512 333.534 357.71 335.76 360.305 335.76C362.635 335.76 363.959 334.117 364.436 332.792L369.043 333.004C368.461 335.733 365.813 340 360.305 340Z" fill="#3C71DD"/>
<path d="M384.041 340C378.878 340 374.72 335.68 374.72 330.353C374.72 325.027 378.878 320.707 384.041 320.707C389.178 320.707 393.362 325.027 393.362 330.353C393.362 335.68 389.178 340 384.041 340ZM384.041 335.76C386.636 335.76 388.86 333.534 388.86 330.353C388.86 327.173 386.636 324.947 384.041 324.947C381.42 324.947 379.222 327.173 379.222 330.353C379.222 333.534 381.42 335.76 384.041 335.76Z" fill="#3C71DD"/>
<path d="M411.757 332.368V321.078H416.126V339.629H411.916L404.396 328.339V339.629H400.027V321.078H404.237L411.757 332.368Z" fill="#3C71DD"/>
<path d="M432.159 333.11V329.823H441.029V339.629H438.514L437.773 337.323C436.846 338.595 434.886 340 431.894 340C426.969 340 422.812 335.68 422.812 330.353C422.812 325.027 426.969 320.707 432.106 320.707C437.534 320.707 440.262 324.762 440.765 327.2L436.131 327.412C435.734 326.405 434.436 324.894 432.106 324.894C429.511 324.894 427.313 327.147 427.313 330.353C427.313 333.56 429.511 335.813 432.159 335.813C434.622 335.813 435.866 334.196 436.237 333.11H432.159Z" fill="#3C71DD"/>
<path d="M463.575 339.629H458.491L454.943 333.322H452.93V339.629H448.429V321.078H456.426C460.265 321.078 462.966 323.675 462.966 327.226C462.966 329.558 461.589 331.493 459.338 332.527L463.575 339.629ZM456.028 325.027H452.851V329.532H456.028C457.405 329.532 458.412 328.578 458.412 327.279C458.412 325.981 457.405 325.027 456.028 325.027Z" fill="#3C71DD"/>
<path d="M474.416 332.103V335.574H483.313V339.629H469.915V321.078H483.048V325.133H474.416V328.26H482.042V332.103H474.416Z" fill="#3C71DD"/>
<path d="M496.542 340C491.988 340 489.287 337.164 489.075 333.746L493.576 333.534C493.788 334.991 494.741 336.078 496.489 336.078C498.104 336.078 498.846 335.336 498.846 334.514C498.846 331.361 489.472 332.659 489.472 326.14C489.472 323.092 491.908 320.707 496.304 320.707C500.302 320.707 503.029 323.49 503.215 326.749L498.74 326.961C498.581 325.557 497.654 324.629 496.251 324.629C494.821 324.629 494.079 325.371 494.079 326.272C494.079 329.373 503.427 327.915 503.427 334.461C503.427 337.535 500.964 340 496.542 340Z" fill="#3C71DD"/>
<path d="M516.502 340C511.948 340 509.247 337.164 509.035 333.746L513.536 333.534C513.748 334.991 514.702 336.078 516.449 336.078C518.064 336.078 518.806 335.336 518.806 334.514C518.806 331.361 509.432 332.659 509.432 326.14C509.432 323.092 511.868 320.707 516.264 320.707C520.262 320.707 522.989 323.49 523.175 326.749L518.7 326.961C518.541 325.557 517.614 324.629 516.211 324.629C514.781 324.629 514.04 325.371 514.04 326.272C514.04 329.373 523.387 327.915 523.387 334.461C523.387 337.535 520.924 340 516.502 340Z" fill="#3C71DD"/>
<path d="M376.092 294.06H276.009V303.075H374.062L376.092 294.06Z" fill="#E6594C"/>
<path d="M425.331 303.075L423.301 294.06H523.39V303.075H425.331Z" fill="#E6594C"/>
<path d="M399.699 285.053L402.626 294.059H412.095L404.434 299.625L407.36 308.632L399.699 303.066L392.038 308.632L394.964 299.625L387.303 294.059H396.773L399.699 285.053Z" fill="#E6594C"/>
<path d="M492.234 215.859L523.391 276.028H499.028L473.672 225.141V276.028H451.133V160H473.672V209.063L497.703 160H520.573L492.234 215.859Z" fill="#3C71DD"/>
<path fill-rule="evenodd" clip-rule="evenodd" d="M385.785 250.999H413.607L419.242 276.028H442.111L411.121 160H388.271L357.281 276.028H380.151L385.785 250.999ZM399.696 186.563L389.431 231.108H409.961L399.696 186.563Z" fill="#3C71DD"/>
<path d="M346.205 177.736L301.223 255.64H348.26V276.028H276.009V258.292L321.545 180.388H277.334V160H346.205V177.736Z" fill="#3C71DD"/>
</svg>
