<svg fill="none" height="500" viewBox="0 0 800 500" width="800" xmlns="http://www.w3.org/2000/svg"><path d="m0 0h800v500h-800z" fill="#fcf8f8"/><g fill="#3c71dd"><path d="m277.416 328.976v4.682h-9.414v4.269h8.061v4.476h-8.061v7.185h-5.002v-20.612z"/><path d="m293.53 350c-5.738 0-10.357-4.8-10.357-10.718 0-5.919 4.619-10.719 10.357-10.719 5.707 0 10.356 4.8 10.356 10.719 0 5.918-4.649 10.718-10.356 10.718zm0-4.711c2.883 0 5.354-2.474 5.354-6.007 0-3.534-2.471-6.007-5.354-6.007-2.913 0-5.355 2.473-5.355 6.007 0 3.533 2.442 6.007 5.355 6.007z"/><path d="m328.121 349.588h-5.649l-3.942-7.008h-2.236v7.008h-5.002v-20.612h8.885c4.266 0 7.267 2.885 7.267 6.831 0 2.591-1.53 4.741-4.03 5.889zm-8.385-16.225h-3.531v5.006h3.531c1.53 0 2.648-1.06 2.648-2.503s-1.118-2.503-2.648-2.503z"/><path d="m356.672 350c-5.707 0-10.327-4.8-10.327-10.718 0-5.919 4.62-10.719 10.327-10.719 6.032 0 8.915 4.623 9.621 7.804l-5.119.235c-.412-1.472-1.883-3.327-4.502-3.327-2.883 0-5.325 2.473-5.325 6.007 0 3.533 2.442 6.007 5.325 6.007 2.589 0 4.06-1.826 4.59-3.298l5.119.235c-.647 3.033-3.589 7.774-9.709 7.774z"/><path d="m383.046 350c-5.737 0-10.357-4.8-10.357-10.718 0-5.919 4.62-10.719 10.357-10.719 5.707 0 10.356 4.8 10.356 10.719 0 5.918-4.649 10.718-10.356 10.718zm0-4.711c2.883 0 5.354-2.474 5.354-6.007 0-3.534-2.471-6.007-5.354-6.007-2.913 0-5.355 2.473-5.355 6.007 0 3.533 2.442 6.007 5.355 6.007z"/><path d="m413.842 341.52v-12.544h4.854v20.612h-4.678l-8.355-12.544v12.544h-4.855v-20.612h4.678z"/><path d="m436.51 342.344v-3.651h9.856v10.895h-2.795l-.824-2.562c-1.029 1.413-3.207 2.974-6.531 2.974-5.473 0-10.092-4.8-10.092-10.718 0-5.919 4.619-10.719 10.327-10.719 6.032 0 9.062 4.506 9.621 7.215l-5.149.235c-.441-1.119-1.883-2.797-4.472-2.797-2.883 0-5.325 2.503-5.325 6.066s2.442 6.066 5.384 6.066c2.736 0 4.119-1.797 4.531-3.004z"/><path d="m471.417 349.588h-5.649l-3.943-7.008h-2.236v7.008h-5.001v-20.612h8.885c4.266 0 7.267 2.885 7.267 6.831 0 2.591-1.53 4.741-4.031 5.889zm-8.385-16.225h-3.531v5.006h3.531c1.53 0 2.648-1.06 2.648-2.503s-1.118-2.503-2.648-2.503z"/><path d="m483.462 341.225v3.858h9.886v4.505h-14.887v-20.612h14.593v4.505h-9.592v3.475h8.474v4.269z"/><path d="m508.047 350c-5.061 0-8.062-3.151-8.297-6.949l5.001-.236c.236 1.62 1.295 2.827 3.237 2.827 1.795 0 2.618-.824 2.618-1.737 0-3.504-10.415-2.061-10.415-9.305 0-3.386 2.707-6.037 7.591-6.037 4.442 0 7.473 3.092 7.679 6.714l-4.972.236c-.177-1.561-1.207-2.592-2.766-2.592-1.589 0-2.412.825-2.412 1.826 0 3.445 10.385 1.826 10.385 9.099 0 3.416-2.736 6.154-7.649 6.154z"/><path d="m530.225 350c-5.061 0-8.062-3.151-8.297-6.949l5.001-.236c.236 1.62 1.295 2.827 3.237 2.827 1.794 0 2.618-.824 2.618-1.737 0-3.504-10.415-2.061-10.415-9.305 0-3.386 2.707-6.037 7.591-6.037 4.442 0 7.473 3.092 7.679 6.714l-4.972.236c-.177-1.561-1.207-2.592-2.766-2.592-1.589 0-2.413.825-2.413 1.826 0 3.445 10.386 1.826 10.386 9.099 0 3.416-2.736 6.154-7.649 6.154z"/></g><g fill="#e6594c"><path d="m374.213 298.955h-111.203v10.017h108.948z"/><path d="m428.923 308.972-2.255-10.017h111.21v10.017z"/><path d="m400.444 288.948 3.251 10.007h10.522l-8.512 6.184 3.251 10.007-8.512-6.184-8.513 6.184 3.252-10.007-8.513-6.184h10.522z"/></g><g fill="#3c71dd"><path d="m503.259 212.066 34.62 66.854h-27.07l-28.174-56.541v56.541h-25.043v-128.92h25.043v54.515l26.701-54.515h25.412z"/><path clip-rule="evenodd" d="m384.984 251.11h30.913l6.261 27.81h25.41l-34.433-128.92h-25.389l-34.433 128.92h25.41zm15.456-71.596-11.405 49.495h22.811z" fill-rule="evenodd"/><path d="m341.006 169.706-49.981 86.561h52.264v22.653h-80.279v-19.707l50.596-86.56h-49.123v-22.653h76.523z"/></g></svg>