<svg fill="none" height="500" viewBox="0 0 800 500" width="800" xmlns="http://www.w3.org/2000/svg"><path d="m0 0h800v500h-800z" fill="#3635e7"/><g fill="#fff"><path clip-rule="evenodd" d="m308 250c0 49.706-40.294 90-90 90s-90-40.294-90-90 40.294-90 90-90 90 40.294 90 90zm-67.973-39.548c4.446 2.223 6.248 7.629 4.025 12.075l-18 36c-1.435 2.87-4.288 4.758-7.49 4.958-3.202.199-6.268-1.321-8.048-3.991l-8.51-12.764-11.645 29.115c-1.846 4.615-7.084 6.859-11.699 5.013s-6.86-7.083-5.014-11.698l18-45c1.241-3.104 4.1-5.263 7.424-5.61 3.325-.346 6.567 1.179 8.421 3.96l9.397 14.096 11.065-22.129c2.222-4.446 7.629-6.248 12.074-4.025zm9.717 20.815-11.384 22.769 7.104 21.312c1.572 4.716 6.669 7.264 11.384 5.692 4.716-1.572 7.264-6.669 5.693-11.384z" fill-rule="evenodd"/><path d="m353 274.75h11.857v-22.721c0-4.36 2.602-7.65 6.503-7.65 4.055 0 6.273 2.907 6.273 7.038v23.333h11.858v-22.644c0-4.514 2.601-7.727 6.502-7.727 4.131 0 6.12 2.907 6.12 7.344v23.027h11.857v-27.158c0-8.415-5.89-14.229-14.687-14.229-5.049 0-8.874 1.76-11.705 5.508h-.535c-2.448-3.442-6.427-5.508-11.705-5.508-5.355 0-8.874 2.678-10.557 5.355h-.612v-4.36h-11.169z"/><path d="m439.147 275.744c6.656 0 10.022-3.748 11.169-5.584h.612v4.59h11.781v-40.392h-11.857v4.59h-.612c-1.377-2.142-5.049-5.585-11.399-5.585-10.863 0-18.36 8.721-18.36 21.42s7.574 20.961 18.666 20.961zm2.678-10.71c-5.585 0-9.333-4.207-9.333-10.48 0-6.197 3.748-10.481 9.256-10.481 5.432 0 9.333 4.055 9.333 10.481 0 5.967-3.595 10.48-9.256 10.48z"/><path d="m510.808 274.75-13.999-25.857 13.005-14.535h-14.612l-11.475 13.77h-.459v-30.753h-11.857v57.375h11.857v-10.787l5.355-5.967 8.874 16.754z"/><path d="m531.678 275.744c10.939 0 18.283-5.431 20.119-13.923h-10.71c-1.147 2.525-4.284 4.82-8.95 4.82-5.585 0-9.333-3.672-9.716-8.798h29.759v-3.442c0-11.246-6.962-21.038-20.273-21.038-12.316 0-20.731 8.798-20.731 21.42 0 12.164 8.797 20.961 20.502 20.961zm-9.027-25.78c.535-3.978 4.207-7.574 9.256-7.574 5.279 0 8.798 3.29 9.257 7.574z"/><path d="m571.963 274.75h4.055v-10.404h-1.454c-2.142 0-3.366-1.224-3.366-3.672v-43.299h-11.857v44.676c0 7.879 4.513 12.699 12.622 12.699z"/><path d="m602.529 275.744c13.005 0 21.802-9.256 21.802-21.19s-8.797-21.191-21.726-21.191c-13.081 0-21.802 9.257-21.802 21.191s8.797 21.19 21.726 21.19zm0-10.71c-5.585 0-9.716-4.284-9.716-10.48 0-6.12 4.131-10.481 9.716-10.481 5.661 0 9.792 4.361 9.792 10.481s-4.131 10.48-9.792 10.48z"/><path d="m650.924 293.339c14.459 0 21.114-8.491 21.114-19.048v-39.933h-11.857v4.59h-.612c-1.224-1.989-4.973-5.585-11.552-5.585-10.327 0-18.207 8.033-18.207 20.961 0 13.005 8.033 20.885 18.513 20.885 6.426 0 9.946-3.596 11.323-5.585h.611v4.667c0 6.273-3.136 9.486-9.333 9.486-5.202 0-7.803-2.295-8.338-5.355h-10.863c.382 7.726 6.655 14.917 19.201 14.917zm.23-28.84c-5.585 0-9.333-3.902-9.333-10.175 0-6.196 3.749-10.251 9.257-10.251 5.431 0 9.332 3.825 9.332 10.251 0 5.967-3.595 10.175-9.256 10.175z"/></g></svg>