<svg id="Layer_1" data-name="Layer 1" xmlns="http://www.w3.org/2000/svg" viewBox="0 0 648 264"><defs><style>.cls-1{fill:#6381f3;}.cls-2{fill:#fff;}</style></defs><title>structure-full-white-blue</title><rect class="cls-1" width="648" height="264"/><path class="cls-2" d="M150.6,115.45c-2.12-1.5-4.34-2.93-6.61-4.23a77.92,77.92,0,0,0-7-3.6,12.08,12.08,0,0,0-10.05,0c-2.36,1.07-4.71,2.29-7,3.6s-4.49,2.73-6.6,4.23a12.14,12.14,0,0,0-5,8.71c-.24,2.58-.37,5.22-.37,7.84s.13,5.26.37,7.84a12.14,12.14,0,0,0,5,8.71c2.11,1.5,4.34,2.93,6.6,4.23s4.62,2.53,7,3.6a12,12,0,0,0,10.05,0,77.92,77.92,0,0,0,7-3.6c2.27-1.3,4.49-2.73,6.61-4.23a12.1,12.1,0,0,0,5-8.71c.25-2.58.37-5.22.37-7.84s-.12-5.26-.37-7.84A12.08,12.08,0,0,0,150.6,115.45Zm-20.31-.56a4.09,4.09,0,0,1,3.4,0c2.13,1,4.25,2.07,6.3,3.25,1.31.76,2.59,1.57,3.85,2.4L132,127.38l-11.84-6.84c1.26-.83,2.54-1.64,3.84-2.4C126,117,128.16,115.87,130.29,114.89Zm-6.3,31c-2-1.19-4-2.48-6-3.83a4.09,4.09,0,0,1-1.7-2.95c-.22-2.33-.34-4.71-.34-7.08,0-1.51.07-3,.16-4.53L128,134.31V148C126.64,147.31,125.3,146.61,124,145.86Zm23.67-6.78A4.09,4.09,0,0,1,146,142c-1.91,1.35-3.92,2.64-6,3.83-1.31.75-2.65,1.46-4,2.13V134.31l11.85-6.84c.09,1.51.15,3,.15,4.53C148,134.37,147.88,136.75,147.66,139.08Z"/><path class="cls-2" d="M175.24,116.41a19.58,19.58,0,0,0-8.12-14.07c-4.2-3-8.61-5.84-13.13-8.45s-9.11-5-13.76-7.09a19.81,19.81,0,0,0-16.47,0c-4.65,2.12-9.28,4.51-13.77,7.09s-8.93,5.45-13.12,8.45a19.63,19.63,0,0,0-8.13,14.07C88.25,121.54,88,126.78,88,132s.26,10.46.75,15.59a19.63,19.63,0,0,0,8.13,14.07c4.19,3,8.61,5.84,13.12,8.45s9.12,5,13.77,7.09h0a19.84,19.84,0,0,0,16.47,0c4.65-2.12,9.28-4.51,13.76-7.1s8.93-5.44,13.13-8.44a19.57,19.57,0,0,0,8.12-14.07c.5-5.13.75-10.37.75-15.59S175.74,121.54,175.24,116.41Zm-8,30.41a11.61,11.61,0,0,1-4.81,8.33c-4,2.85-8.18,5.55-12.48,8s-8.66,4.73-13.08,6.74a11.8,11.8,0,0,1-9.83,0h0c-4.42-2-8.82-4.28-13.09-6.74s-8.49-5.18-12.47-8a11.57,11.57,0,0,1-4.81-8.33C96.23,142,96,137,96,132s.24-10,.72-14.82a11.57,11.57,0,0,1,4.81-8.33c4-2.85,8.18-5.55,12.47-8s8.67-4.73,13.09-6.74a11.8,11.8,0,0,1,9.83,0c4.42,2,8.82,4.28,13.08,6.74s8.49,5.18,12.48,8a11.61,11.61,0,0,1,4.81,8.33c.47,4.88.71,9.86.71,14.82S167.75,141.94,167.28,146.82Z"/><path class="cls-2" d="M220.41,128l-.16,0c-5.22-1.59-10.14-3.08-10.14-6.36v-.17c0-3.11,2.92-5.21,7.28-5.21a22.1,22.1,0,0,1,10.72,3.21,4.29,4.29,0,0,0,1.86.44,3.78,3.78,0,0,0,3.81-3.74,4.11,4.11,0,0,0-2.09-3.52,30.77,30.77,0,0,0-14.14-3.77c-9.17,0-15.57,5.45-15.57,13.26v.16c0,8.82,8.6,11.27,14.89,13,5.63,1.58,9.95,3.06,9.95,6.57V142c0,3.46-3.16,5.79-7.86,5.79a23,23,0,0,1-13-4.34,3.53,3.53,0,0,0-2.2-.71,3.78,3.78,0,0,0-3.82,3.73,3.9,3.9,0,0,0,1.58,3.13,30.47,30.47,0,0,0,17.06,5.57c9.71,0,16.23-5.56,16.23-13.84v-.16C234.86,132.32,226.16,129.71,220.41,128Z"/><path class="cls-2" d="M264.57,117.19a3.86,3.86,0,0,0,3.9-3.82,3.91,3.91,0,0,0-3.9-3.81H254.48v-9.1a4.29,4.29,0,0,0-4.23-4.23,4.15,4.15,0,0,0-4.15,4.23v9.1h-2.47a3.87,3.87,0,0,0-3.82,3.81,3.92,3.92,0,0,0,3.82,3.82h2.47V142c0,8.31,4.77,13.08,13.09,13.08a17.09,17.09,0,0,0,6.65-1.22,3.66,3.66,0,0,0,2.46-3.42,3.73,3.73,0,0,0-3.73-3.73,4.16,4.16,0,0,0-.95.17,10.69,10.69,0,0,1-2.94.41c-4.23,0-6.2-1.95-6.2-6.12v-24Z"/><path class="cls-2" d="M299.42,109c-5,0-10.29,3.37-13.73,8.53v-4.14a4.19,4.19,0,1,0-8.38,0v37.17a4.18,4.18,0,0,0,4.23,4.23,4.14,4.14,0,0,0,4.15-4.23V136c0-10.54,5.3-17.48,14.21-18.55a4.14,4.14,0,0,0,3.67-4.21A4.05,4.05,0,0,0,299.42,109Z"/><path class="cls-2" d="M345.37,109.14a4.1,4.1,0,0,0-4.15,4.23v21.69c0,7.31-4.86,12.41-11.83,12.41s-10.84-4.34-10.84-11.91V113.37a4.23,4.23,0,0,0-4.22-4.23,4.1,4.1,0,0,0-4.15,4.23v23.76c0,11,6.83,18.14,17.39,18.14A16.77,16.77,0,0,0,341.22,149v1.53a4.15,4.15,0,1,0,8.3,0V113.37A4.15,4.15,0,0,0,345.37,109.14Z"/><path class="cls-2" d="M393.2,141.6a3.48,3.48,0,0,0-2.51,1.1c-3.51,3.32-7.18,4.94-11.23,4.94-8.26,0-14.73-6.87-14.73-15.64v-.17c0-8.72,6.29-15.55,14.31-15.55,5,0,8.25,2.34,11,4.9a4.28,4.28,0,0,0,2.71,1,4.06,4.06,0,0,0,4.06-4.06,4,4,0,0,0-1.32-3A23.25,23.25,0,0,0,356.19,132v.17a23.09,23.09,0,0,0,22.94,23.18A22.56,22.56,0,0,0,396,148.19a3.9,3.9,0,0,0,1.12-2.7A4,4,0,0,0,393.2,141.6Z"/><path class="cls-2" d="M426.81,117.19a3.86,3.86,0,0,0,3.9-3.82,3.91,3.91,0,0,0-3.9-3.81H416.72v-9.1a4.29,4.29,0,0,0-4.23-4.23,4.15,4.15,0,0,0-4.15,4.23v9.1h-2.47a3.87,3.87,0,0,0-3.82,3.81,3.91,3.91,0,0,0,3.82,3.82h2.47V142c0,8.31,4.77,13.08,13.09,13.08a17.13,17.13,0,0,0,6.65-1.22,3.66,3.66,0,0,0,2.46-3.42,3.73,3.73,0,0,0-3.73-3.73,4.16,4.16,0,0,0-.95.17,10.76,10.76,0,0,1-2.94.41c-4.23,0-6.2-1.95-6.2-6.12v-24Z"/><path class="cls-2" d="M474.08,109.14a4.09,4.09,0,0,0-4.14,4.23v21.69c0,7.31-4.87,12.41-11.84,12.41s-10.83-4.34-10.83-11.91V113.37a4.24,4.24,0,0,0-4.23-4.23,4.1,4.1,0,0,0-4.15,4.23v23.76c0,11,6.83,18.14,17.39,18.14A16.79,16.79,0,0,0,469.94,149v1.53a4.15,4.15,0,1,0,8.29,0V113.37A4.15,4.15,0,0,0,474.08,109.14Z"/><path class="cls-2" d="M510.66,109c-5,0-10.29,3.37-13.74,8.53v-4.14a4.19,4.19,0,1,0-8.37,0v37.17a4.18,4.18,0,0,0,4.23,4.23,4.14,4.14,0,0,0,4.14-4.23V136c0-10.54,5.31-17.48,14.22-18.55a4.14,4.14,0,0,0,3.66-4.21A4,4,0,0,0,510.66,109Z"/><path class="cls-2" d="M560,131.34c0-11.28-7.17-22.69-20.87-22.69-12.08,0-21.53,10.22-21.53,23.27v.16c0,13.27,9.61,23.27,22.36,23.27a22.67,22.67,0,0,0,16.8-6.7,3.73,3.73,0,0,0,1.33-2.82,3.75,3.75,0,0,0-6.31-2.73,16.37,16.37,0,0,1-11.66,4.71c-7.27,0-12.75-5-13.93-12.49H556A4,4,0,0,0,560,131.34Zm-8.49-2.74H526.2C527.35,121.14,532.48,116,539,116,547,116,550.66,122.33,551.52,128.6Z"/></svg>