<svg fill="none" height="501" viewBox="0 0 800 501" width="800" xmlns="http://www.w3.org/2000/svg"><path d="m0 .900024h800v500h-800z" fill="#6381f3"/><g clip-rule="evenodd" fill="#fff" fill-rule="evenodd"><path d="m430.509 197.833c5.797 3.346 11.466 6.972 16.855 10.828 3.623 2.558 6.648 5.871 8.865 9.711 2.218 3.84 3.576 8.116 3.98 12.532.639 6.589.945 13.331.945 20.022 0 6.69-.306 13.432-.945 20.021-.405 4.407-1.755 8.675-3.959 12.514-2.203 3.838-5.208 7.156-8.81 9.729-5.388 3.83-10.981 7.482-16.854 10.828-5.874 3.345-11.875 6.435-17.876 9.168-4.03 1.851-8.411 2.809-12.846 2.809-4.434 0-8.816-.958-12.845-2.809-6.103-2.733-12.079-5.874-17.876-9.194s-11.466-6.972-16.855-10.802c-3.601-2.573-6.606-5.891-8.81-9.729-2.203-3.839-3.553-8.107-3.958-12.514-.639-6.589-.945-13.305-.945-20.021 0-6.717.306-13.459.868-20.047.399-4.406 1.746-8.673 3.951-12.508 2.204-3.835 5.212-7.147 8.818-9.71 5.433-3.889 11.058-7.503 16.854-10.828 5.874-3.345 11.85-6.435 17.876-9.193 4.032-1.843 8.413-2.796 12.846-2.796s8.813.953 12.845 2.796c6.078 2.732 12.079 5.848 17.876 9.193zm-30.645 8.428c-1.498 0-2.978.322-4.341.945-5.439 2.502-10.853 5.414-16.089 8.299-3.345 1.941-6.614 4.01-9.831 6.129l30.261 17.468 30.262-17.468c-3.218-2.119-6.486-4.188-9.832-6.129-5.235-3.013-10.649-5.746-16.088-8.299-1.363-.623-2.844-.945-4.342-.945zm-35.752 70.33c4.954 3.473 10.215 6.741 15.322 9.78v-.076c3.346 1.915 6.768 3.728 10.215 5.49v-34.986l-30.261-17.442c-.23 3.907-.383 7.712-.383 11.569 0 6.026.28 12.13.74 18.003.132 1.517.591 2.987 1.344 4.309.754 1.323 1.785 2.466 3.023 3.353zm74.415-3.383c.734-1.275 1.195-2.689 1.354-4.151v-.077c.562-5.95.843-12.028.843-18.08 0-3.907-.153-7.712-.383-11.568l-30.262 17.467v34.884c3.448-1.711 6.87-3.524 10.215-5.439 5.312-3.039 10.445-6.308 15.323-9.781 1.185-.872 2.175-1.98 2.91-3.255z"/><path d="m503.825 190.874c3.581 6.198 5.794 13.09 6.489 20.215 1.276 13.1 1.915 26.482 1.915 39.812 0 13.331-.639 26.712-1.915 39.813-.689 7.126-2.898 14.021-6.48 20.22-3.582 6.198-8.452 11.556-14.282 15.711-10.7 7.661-22.065 14.99-33.505 21.579-11.441 6.589-23.29 12.692-35.165 18.106-6.597 3.013-13.765 4.572-21.018 4.572-7.252 0-14.42-1.559-21.017-4.572-11.875-5.337-23.647-11.441-35.165-18.106-11.517-6.665-22.805-13.918-33.505-21.579-5.83-4.155-10.7-9.513-14.282-15.711-3.582-6.199-5.791-13.094-6.48-20.22-1.276-13.101-1.915-26.431-1.915-39.787s.639-26.738 1.915-39.838c.695-7.122 2.905-14.012 6.482-20.209 3.576-6.197 8.437-11.558 14.255-15.722 10.725-7.662 22.09-14.94 33.53-21.554 11.441-6.614 23.29-12.718 35.165-18.131 6.596-3.017 13.764-4.578 21.017-4.578 7.254 0 14.422 1.561 21.018 4.578 11.875 5.362 23.622 11.491 35.165 18.131s22.805 13.892 33.505 21.554c5.825 4.159 10.692 9.518 14.273 15.716zm-17.783 109.838c2.119-3.669 3.428-7.748 3.842-11.964h.102c1.2-12.463 1.813-25.052 1.813-37.821s-.613-25.41-1.813-37.847c-.413-4.219-1.726-8.301-3.849-11.97s-5.008-6.841-8.46-9.302c-10.164-7.202-20.966-14.148-31.845-20.43s-22.141-12.105-33.429-17.212c-3.937-1.793-8.213-2.72-12.539-2.72-4.325 0-8.601.927-12.538 2.72-11.288 5.133-22.473 10.955-33.429 17.212-10.955 6.257-21.655 13.152-31.87 20.43-3.449 2.468-6.329 5.646-8.447 9.319-2.119 3.674-3.427 7.758-3.837 11.979-1.2 12.283-1.813 25.052-1.813 37.821s.613 25.384 1.711 37.821c.413 4.216 1.723 8.295 3.842 11.964 2.118 3.669 4.996 6.843 8.441 9.308 10.19 7.202 20.992 14.148 31.871 20.43s22.141 12.105 33.428 17.212c3.935 1.804 8.211 2.738 12.539 2.738s8.605-.934 12.539-2.738c11.288-5.133 22.473-10.955 33.429-17.212 10.955-6.257 21.655-13.152 31.87-20.43 3.445-2.465 6.324-5.639 8.442-9.308z"/></g></svg>