<svg fill="none" height="501" viewBox="0 0 800 501" width="800" xmlns="http://www.w3.org/2000/svg"><path d="m0 .900024h800v500h-800z" fill="#ecf1f9"/><g fill="#3d79cc"><path clip-rule="evenodd" d="m248.793 250.529c0-28.099-22.534-49.629-50.396-49.629-27.984 0-50.897 21.909-50.897 50 0 28.212 22.663 50 50.647 50 27.991 0 50.646-22.152 50.646-50.371zm-24.891.242c0 14.356-10.892 27.227-25.755 27.227-14.735 0-25.756-12.871-25.756-27.227s11.021-27.106 25.756-27.106c14.734 0 25.755 12.75 25.755 27.106z" fill-rule="evenodd"/><path d="m294.21 253.498c5.692 0 9.034 4.705 9.034 10.152h.016v35.765h23.526v-39.97c0-12.871-5.699-27.477-23.155-27.477-6.321 0-13.878 2.841-18.949 9.652h-.25v-8.296h-23.406v66.091h23.527v-35.765c0-6.561 3.957-10.152 9.657-10.152z"/><path d="m368.982 268.839h.121l11.514-35.522h19.191l11.885 35.772h.121l10.899-35.772h22.534l-21.298 66.091h-22.413l-11.271-35.394h-.242l-11.642 35.394h-22.163l-20.927-66.091h23.398z"/><path clip-rule="evenodd" d="m449.446 247.68 15.728 9.652c3.343-4.826 7.799-7.546 14.242-7.553 5.942 0 8.792 3.219 8.792 6.56 0 2.478-1.735 4.084-4.707 4.084h-3.471c-14.113 0-31.326 4.704-31.326 20.795 0 11.144 9.035 19.432 20.055 19.432 7.921 0 14.485-2.599 20.056-9.03l.25.121v7.674h22.413v-40.348c0-18.319-12.257-27.228-30.334-27.228-15.477 0-25.634 5.076-31.698 15.841zm38.762 25.364v1.985c0 5.939-4.335 9.288-10.02 9.28-3.1 0-5.95-2.348-5.95-5.568 0-4.212 4.207-5.697 7.8-5.697z" fill-rule="evenodd"/><path d="m572.637 255.968-.008-.001v-22.764c-1.364-.379-3.221-.5-4.335-.5-5.321 0-14.235 2.106-18.57 11.015h-.121v-10.394h-23.406v66.091h23.656v-27.227c0-12.379 7.177-16.712 16.963-16.712.371 0 3.215 0 5.813.491v.001z"/><path clip-rule="evenodd" d="m609.943 232.082c-16.463 0-31.447 13.992-31.447 34.159 0 18.818 13.127 34.538 30.954 34.538 3.722 0 12.264-.871 18.949-9.409h.493v8.045h23.406v-97.03h-23.527v38.485h-.501c-6.313-8.288-15.234-8.788-18.327-8.788zm-7.299 34.159c0-7.303 5.821-13.364 13.128-13.364 7.306 0 13.12 6.061 13.12 13.364s-5.814 13.363-13.12 13.363c-7.307 0-13.128-6.06-13.128-13.363z" fill-rule="evenodd"/></g><path d="m198.147 250.62c0 19.772-14.757 35.606-33.782 37.742 8.959 7.849 20.798 12.538 33.782 12.538 12.908 0 24.671-4.712 33.615-12.553-18.949-2.22-33.615-18.008-33.615-37.727z" fill="#80c3ff"/></svg>