<svg fill="none" height="501" viewBox="0 0 800 501" width="800" xmlns="http://www.w3.org/2000/svg"><path d="m0 .900024h800v500h-800z" fill="#bf3671"/><g fill="#d9f3ff"><path d="m368.781 246.244c1.842-1.043 3.924-1.584 6.04-1.57.187 0 .368.004.543.007.247.006.481.011.7.004 2.775.298 5.417 1.345 7.643 3.029s3.953 3.941 4.996 6.53c1.782 4.477 2.222 9.823 1.298 16.5l-.033.003c-1.771.142-3.531.283-5.269.283-9.02.242-15.422-1.958-19.03-6.358-3.41-4.158-3.96-9.988-1.342-14.058 1.077-1.821 2.613-3.328 4.454-4.37z"/><path clip-rule="evenodd" d="m492.499 343.399c-17.501 17.501-44.297 17.501-92.499 17.501s-74.998 0-92.499-17.501-17.501-44.297-17.501-92.499 0-74.998 17.501-92.499 44.297-17.501 92.499-17.501 74.998 0 92.499 17.501 17.501 44.297 17.501 92.499 0 74.998-17.501 92.499zm-109.708-17.649c1.38.692 2.904 1.052 4.449 1.05 2.134-.003 4.21-.695 5.919-1.973 1.708-1.279 2.958-3.075 3.563-5.122 1.113-3.674 2.306-7.459 3.464-11.134l.397-1.258c1.961-6.223 3.963-12.574 5.731-18.925 16.363-3.136 32.019-9.227 46.2-17.974 2.166-1.427 3.685-3.647 4.232-6.183.546-2.535.075-5.184-1.311-7.376-1.387-2.192-3.578-3.753-6.103-4.346-2.526-.593-5.183-.172-7.4 1.174-9.034 5.605-18.809 9.915-29.04 12.804 3.263-10.619 6.497-21.131 9.702-31.537 4.869-15.737 9.706-31.475 14.509-47.212.412-1.252.57-2.573.465-3.887-.106-1.314-.472-2.593-1.079-3.763-.606-1.17-1.44-2.208-2.452-3.051-1.013-.844-2.184-1.477-3.444-1.862s-2.585-.515-3.896-.382c-1.311.134-2.583.528-3.739 1.159-1.157.631-2.177 1.487-2.998 2.517-.822 1.031-1.43 2.215-1.788 3.483-4.825 15.723-9.658 31.445-14.498 47.168l-2.464 7.997c-5.886-6.924-14.249-11.267-23.298-12.1-5.932-.589-11.911.497-17.258 3.133-5.346 2.637-9.847 6.719-12.992 11.783-7.293 11.341-6.193 26.301 2.607 37.224 7.612 9.394 19.228 13.981 34.485 13.695-2.361 7.759-4.697 15.492-7.007 23.199-.445 1.479-.537 3.042-.269 4.564.267 1.521.887 2.959 1.81 4.198.922 1.239 2.122 2.245 3.503 2.937z" fill-rule="evenodd"/></g></svg>