<svg fill="none" height="501" viewBox="0 0 800 501" width="800" xmlns="http://www.w3.org/2000/svg" xmlns:xlink="http://www.w3.org/1999/xlink"><radialGradient id="a" cx="0" cy="0" gradientTransform="matrix(-500 0 0 -500 400 501)" gradientUnits="userSpaceOnUse" r="1"><stop offset="0" stop-color="#fbc02d"/><stop offset="1" stop-color="#fbc02d" stop-opacity="0"/></radialGradient><clipPath id="b"><path d="m0 .899902h800v500h-800z"/></clipPath><g clip-path="url(#b)"><path d="m0 0h800v500h-800z" fill="#fff" transform="translate(0 .899902)"/><path d="m-100 501c0-65.661 12.9329-130.679 38.0602-191.342 25.1274-60.663 61.9571516-115.782 108.3864-162.211 46.4293-46.43 101.5494-83.2594 162.2114-108.3868 60.663-25.1273 125.681-38.060203 191.342-38.0602 65.661 0 130.679 12.9329 191.342 38.0602 60.663 25.1274 115.782 61.9568 162.211 108.3868 46.43 46.429 83.259 101.549 108.387 162.211 25.127 60.663 38.06 125.681 38.06 191.342z" fill="url(#a)" opacity=".25"/><g fill="#001b56"><path d="m250.705 218.89c0 5.806 2.309 11.374 6.418 15.48 4.109 4.105 9.682 6.412 15.494 6.412v-21.892z"/><path d="m223.144 197.163v21.727h-21.925c0 5.806 2.309 11.374 6.418 15.48 4.109 4.105 9.682 6.412 15.494 6.412v41.627c0 5.806 2.308 11.375 6.417 15.48s9.683 6.412 15.494 6.412v-107.124z"/><path d="m261.702 282.402c-1.442-.005-2.871.274-4.205.822s-2.547 1.353-3.568 2.37c-1.022 1.016-1.833 2.225-2.386 3.556s-.838 2.758-.838 4.198c0 2.904 1.154 5.688 3.209 7.74 2.055 2.053 4.841 3.206 7.747 3.206s5.692-1.153 7.747-3.206c2.055-2.052 3.209-4.836 3.209-7.74 0-2.895-1.149-5.673-3.194-7.725-2.046-2.052-4.822-3.21-7.721-3.221z"/><path d="m331.642 237.156c-13.663-2.438-22.777 4.876-22.777 16.749v48.446h-21.478v-48.446c0-23.74 16.433-40.323 44.255-36.91z"/><path d="m422.765 260.565c0 25.037-19.039 43.736-42.304 43.736s-42.145-18.699-42.145-43.736c0-25.036 18.873-44.058 42.145-44.058s42.304 19.022 42.304 44.058zm-21.637.165c0-14.468-9.278-24.549-20.667-24.549-11.388 0-20.667 10.081-20.667 24.549 0 14.146 9.272 23.897 20.667 23.897 11.396 0 20.667-9.751 20.667-23.897z"/><path d="m480.203 302.351h-23.107l-31.733-83.729h22.454l20.832 62.428 20.99-62.428h22.132z"/><path d="m597.842 275.721c-4.88 17.071-19.685 28.614-40.551 28.614-23.76 0-42.957-19.509-42.957-43.735 0-24.227 19.197-44.059 42.957-44.059 20.179 0 37.114 12.684 41.169 35.118l-59.232 24.879c2.053 2.801 4.746 5.072 7.854 6.625 3.108 1.552 6.542 2.341 10.016 2.302 6.997 0 14.159-3.09 17.74-9.758zm-24.056-32.838c-3.904-4.718-9.76-7.478-16.598-7.478-12.372 0-22.29 9.751-22.778 24.034z"/></g></g></svg>