<svg fill="none" height="500" viewBox="0 0 800 500" width="800" xmlns="http://www.w3.org/2000/svg"><path d="m0 0h800v500h-800z" fill="#30392d"/><g fill="#f0ecea"><path d="m206.638 283.566v-34.549c0-11.04-6.718-16.235-17.57-16.235-6.718 0-13.307 1.948-18.733 5.455-5.426 3.377-9.818 8.442-10.335 14.807h13.694v-12.339c2.197-.52 4.78-.909 7.623-.909 7.751 0 11.627 3.247 11.627 9.611v8.572c-6.33 1.559-12.79 3.507-19.25 6.494-8.397 3.897-13.436 8.702-13.436 16.235 0 8.962 6.331 15.196 15.503 15.196 8.269 0 13.824-4.545 17.958-9.741 1.163 4.676 4.909 8.702 11.111 8.702h9.818v-11.299zm-23.9 3.247c-5.426 0-8.914-3.377-8.914-9.611 0-4.676 1.937-7.404 6.201-9.612 4.005-2.078 8.139-3.507 12.919-4.805v20.391c-2.713 2.208-6.072 3.637-10.206 3.637z"/><path d="m319.12 289.281v-38.965c0-10.131-5.943-17.534-16.666-17.534-8.914 0-16.149 5.195-21.187 10.261-2.197-5.326-7.235-10.261-15.762-10.261-9.172 0-16.278 5.325-21.187 10.39v-9.091h-21.963v3.507l8.398 5.065v46.628l-8.785 2.207v3.377h30.877v-3.377l-8.269-2.207v-43.121c2.326-1.689 6.589-3.507 11.498-3.507 7.235 0 12.015 3.377 12.015 11.3v35.328l-8.268 2.207v3.377h30.231v-3.377l-8.139-2.207v-43.251c2.454-1.689 6.459-3.377 11.239-3.377 7.364 0 12.144 3.507 12.144 11.689v34.939l-8.268 2.207v3.377h30.877v-3.377z"/><path d="m367.643 232.782c-8.269 0-14.599 4.416-19.25 9.871v-40.653l-23.384 3.637v3.117l9.56 4.546v81.565h22.997c19.508 0 32.556-14.806 32.556-34.288 0-15.846-8.527-27.795-22.479-27.795zm-.776 56.109-18.474-2.858v-39.743c2.455-1.949 6.072-3.767 11.11-3.767 11.24 0 17.7 8.572 17.7 24.158 0 11.04-3.359 18.963-10.336 22.21z"/><path d="m424.775 248.108h12.402v-14.417h-3.23c-8.397 0-14.34 6.494-18.733 13.897v-13.507h-21.962v3.507l8.397 5.065v46.628l-8.785 2.207v3.377h33.073v-3.377l-10.464-2.207v-38.965c2.325-1.429 5.426-2.208 9.302-2.208z"/><path d="m472.963 296.164c17.958 0 30.102-13.118 30.102-31.951 0-18.313-12.273-31.431-30.102-31.431-17.958 0-30.102 13.118-30.102 31.951 0 18.313 12.274 31.431 30.102 31.431zm0-4.935c-9.948 0-14.469-8.313-14.469-26.756s4.392-26.756 14.469-26.756 14.599 8.183 14.599 26.756c0 18.313-4.522 26.756-14.599 26.756z"/><path d="m540.333 296.164c17.957 0 30.101-13.118 30.101-31.951 0-18.313-12.273-31.431-30.101-31.431-17.958 0-30.102 13.118-30.102 31.951 0 18.313 12.273 31.431 30.102 31.431zm0-4.935c-9.948 0-14.47-8.313-14.47-26.756s4.393-26.756 14.47-26.756c10.076 0 14.598 8.183 14.598 26.756 0 18.313-4.522 26.756-14.598 26.756z"/><path d="m594.266 202-23.513 3.637v3.117l9.69 4.546v75.981l-8.785 2.207v3.377h31.264v-3.377l-8.656-2.207zm43.15 87.8-29.326-33.509 11.756-11.82 16.407-7.013v-3.377h-21.316v8.182l-19.767 20.262 28.293 32.34h16.537v-3.377z"/></g></svg>