<svg fill="none" height="500" viewBox="0 0 800 500" width="800" xmlns="http://www.w3.org/2000/svg"><path d="m0 0h800v500h-800z" fill="#2b1d30"/><g fill="#c6ad9a"><path d="m170.931 231.554-7.088 7.087 7.072 7.072 14.191.016-21.263 21.263 7.088 7.088 14.175-14.175 14.175 14.175 7.088-7.088-14.175-14.175 14.175-14.176-7.088-7.087-14.175 14.175z"/><path clip-rule="evenodd" d="m217.001 220.922c17.615 17.615 17.615 46.175 0 63.79-17.615 17.614-46.175 17.614-63.79 0-17.615-17.615-17.615-46.175 0-63.79s46.175-17.615 63.79 0zm-56.702 7.088c13.7-13.701 35.913-13.701 49.614 0 13.7 13.7 13.7 35.913 0 49.614-13.701 13.7-35.914 13.7-49.614 0-13.701-13.701-13.701-35.914 0-49.614z" fill-rule="evenodd"/><path d="m250.259 205.104v10.767h29.702v80.195h11.757v-80.195h29.702v-10.767z"/><path d="m340.62 229.608c-18.44 0-31.806 14.727-31.806 34.405 0 19.925 12.995 33.91 32.672 33.91 11.634 0 23.267-4.703 29.083-15.223l-8.539-7.301c-3.713 8.539-10.396 12.623-20.296 12.623-11.139 0-19.802-6.807-21.163-20.42h50.617c.248-1.733.248-3.342.248-4.827 0-19.677-11.633-33.167-30.816-33.167zm-19.801 29.083c1.732-12.623 9.9-19.059 19.553-19.059 11.386 0 18.812 7.302 18.812 19.059z"/><path d="m380.31 231.712v64.354h11.385v-34.652c0-13.737 7.178-21.286 18.688-21.286 10.396 0 15.717 5.94 15.717 17.944v37.994h11.386v-39.726c0-16.708-8.911-26.608-24.504-26.608-9.777 0-14.851 3.713-17.945 7.178l-3.342 14.356v-19.554z"/><path d="m474.557 203c-12.376 0-20.297 8.787-20.297 21.039v7.673h-11.386v10.024h11.386v54.33h11.386v-54.33h19.306v-10.024h-19.306v-7.302c0-7.92 4.208-11.138 11.014-11.138 2.352 0 5.074.247 7.178.742v-9.9c-2.722-.743-6.435-1.114-9.281-1.114z"/><path d="m519.319 229.608c-19.307 0-34.281 13.985-34.281 34.157 0 20.173 14.974 34.158 34.281 34.158 19.43 0 34.528-13.985 34.528-34.158 0-20.172-15.098-34.157-34.528-34.157zm-22.648 34.157c0-14.232 9.405-23.637 22.648-23.637 13.242 0 22.771 9.405 22.771 23.637 0 14.356-9.529 23.638-22.771 23.638-12.995 0-22.648-9.282-22.648-23.638z"/><path d="m562.228 205.104v90.962h11.386v-90.962z"/><path d="m650.471 205.104h-11.386v36.014c-5.198-6.931-13.366-11.51-24.257-11.51-19.677 0-32.548 15.099-32.548 34.281 0 19.059 12.871 34.034 32.548 34.034 11.138 0 18.935-4.579 23.886-10.644l1.237-15.593 8.044 24.38h12.005l-9.529-27.845zm-56.558 58.785c0-13.366 8.539-23.885 22.772-23.885 13.737 0 22.771 10.519 22.771 23.885s-9.034 23.638-22.771 23.638c-14.233 0-22.772-10.396-22.772-23.638z"/></g></svg>