<svg fill="none" height="500" viewBox="0 0 800 500" width="800" xmlns="http://www.w3.org/2000/svg"><path d="m0 0h800v500h-800z" fill="#ff5a5a"/><path clip-rule="evenodd" d="m400 140c-60.754 0-110 49.246-110 110s49.246 110 110 110 110-49.246 110-110-49.246-110-110-110zm0 17.188c24.791 0 48.097 9.652 65.629 27.183 17.531 17.532 27.183 40.838 27.183 65.629s-9.652 48.097-27.183 65.629c-.117.117-.234.233-.352.349-8.952-5.913-18.755-10.646-29.183-13.975v-107.003c0-4.746-3.848-8.594-8.594-8.594s-8.594 3.848-8.594 8.594v46.406h-37.812v-46.406c0-4.746-3.848-8.594-8.594-8.594s-8.594 3.848-8.594 8.594v107.003c-10.428 3.329-20.231 8.062-29.183 13.975l-.149-.147c-.068-.067-.135-.135-.203-.202-17.531-17.532-27.183-40.838-27.183-65.629s9.652-48.097 27.183-65.629c17.532-17.531 40.838-27.183 65.629-27.183zm-51.197 170.262c15.055 9.997 32.713 15.362 51.197 15.362s36.142-5.365 51.197-15.362c-15.021-8.806-32.509-13.856-51.197-13.856s-36.176 5.05-51.197 13.856zm32.291-29.543c6.158-.988 12.473-1.501 18.906-1.501s12.748.513 18.906 1.501v-39.313h-37.812z" fill="#fff" fill-rule="evenodd"/></svg>