<svg fill="none" height="500" viewBox="0 0 800 500" width="800" xmlns="http://www.w3.org/2000/svg"><path d="m0 0h800v500h-800z" fill="#1f1a27"/><path clip-rule="evenodd" d="m337.5 213c-4.388 0-8.588.762-12.5 2.137v-27.137h-25v100h25v-37.5c0-6.9 5.6-12.5 12.5-12.5s12.5 5.6 12.5 12.5v37.5h25v-9.547c6.634 5.937 15.395 9.547 25 9.547s18.366-3.61 25-9.547v34.547h25v-27.137c3.913 1.387 8.112 2.137 12.5 2.137 20.712 0 37.5-16.788 37.5-37.5s-16.788-37.5-37.5-37.5c-13.044 0-24.532 6.658-31.25 16.762-6.718-10.104-18.206-16.762-31.25-16.762s-24.532 6.658-31.25 16.762c-6.718-10.104-18.206-16.762-31.25-16.762zm62.5 50c-6.9 0-12.5-5.6-12.5-12.5s5.6-12.5 12.5-12.5 12.5 5.6 12.5 12.5-5.6 12.5-12.5 12.5zm50-12.5c0 6.9 5.6 12.5 12.5 12.5s12.5-5.6 12.5-12.5-5.6-12.5-12.5-12.5-12.5 5.6-12.5 12.5z" fill="#fff" fill-rule="evenodd"/></svg>