<svg fill="none" height="501" viewBox="0 0 800 501" width="800" xmlns="http://www.w3.org/2000/svg"><path d="m0 .899902h800v500h-800z" fill="#ffecf1"/><path d="m408.538 312.746c-5-2.038-10.153-4.154-22.077-4.154-11.923 0-17.115 2.116-22.076 4.154-1.424.577-2.885 1.154-4.462 1.692-4.077 4.885-5.962 11.616-5 18.154.538 3.731 3.808 6.539 7.615 6.539.385 0 .77-.039 1.193-.077 3.884-.577 6.846-2 9.077-3.539 1.615 3.808 4.692 8.077 10.653 10.654.962.423 1.962.616 3.039.616s2.077-.193 3.038-.616c5.962-2.538 9.039-6.846 10.654-10.654 2.231 1.539 5.193 2.923 9.077 3.539.385.077.769.077 1.193.077 3.807 0 7.076-2.808 7.615-6.539.923-6.538-.923-13.269-5-18.154-1.654-.538-3.077-1.115-4.539-1.692z" fill="#73e5bf"/><g fill="#ff4070"><path d="m571.077 316.285c-7.654 0-12.077-1.808-16.385-3.539-5-2.038-10.154-4.154-22.077-4.154s-17.115 2.116-22.077 4.154c-4.269 1.731-8.692 3.539-16.384 3.539-8.731 0-15.462-2.308-20.039-6.885s-6.884-11.308-6.884-20.038c0-.27.038-25.577 3.884-50.577 5.462-35.347 15.769-53.27 30.731-53.27 9.269 0 14.192 4.885 18.115 8.808 3.654 3.692 6.539 6.577 12.654 6.577 6.116 0 9-2.885 12.654-6.577 3.923-3.923 8.846-8.808 18.115-8.808 14.962 0 25.27 17.923 30.731 53.27 3.846 25 3.885 50.346 3.885 50.577 0 8.73-2.308 15.461-6.885 20.038s-11.308 6.885-20.038 6.885z"/><path d="m424.923 316.285c-7.654 0-12.077-1.808-16.385-3.539-5-2.038-10.153-4.154-22.077-4.154-11.923 0-17.115 2.116-22.076 4.154-4.27 1.731-8.693 3.539-16.385 3.539-8.731 0-15.462-2.308-20.039-6.885-4.576-4.577-6.884-11.308-6.884-20.038 0-22.731 7.384-48.654 19.769-69.27 13.192-21.961 29.808-34.577 45.615-34.577 15.808 0 32.424 12.616 45.616 34.577 12.384 20.654 19.769 46.539 19.769 69.27 0 8.73-2.308 15.461-6.885 20.038-4.576 4.577-11.307 6.885-20.038 6.885z"/><path d="m255.692 316.285c-12.846 0-25.923-4.308-35.961-11.847-11.539-8.615-17.885-20.807-17.885-34.307 0-10.654 6.039-23.077 23.077-23.077 9.385 0 11.538-2.154 11.538-11.539v-15.384c0-25.231 9.385-34.616 34.616-34.616s34.615 9.385 34.615 34.616v46.154c0 16.384-4.269 28.923-12.654 37.346-8.423 8.384-20.961 12.654-37.346 12.654z"/></g><g fill="#2a3632"><path d="m369.154 258.592c-1.923 0-5.769 0-5.769 9.616 0 9.615 3.846 9.615 5.769 9.615s5.769 0 5.769-9.615c0-9.616-3.846-9.616-5.769-9.616z"/><path d="m403.769 258.592c-1.923 0-5.769 0-5.769 9.616 0 9.615 3.846 9.615 5.769 9.615s5.769 0 5.769-9.615c0-9.616-3.846-9.616-5.769-9.616z"/><path d="m386.462 227.823c-1.924 0-5.77 0-5.77 9.615 0 9.616 3.846 9.616 5.77 9.616 1.923 0 5.769 0 5.769-9.616 0-9.615-3.846-9.615-5.769-9.615z"/><path d="m563.385 189.362c30.769 0 30.769 100 30.769 100 0 15.384-7.693 23.076-23.077 23.076-15.385 0-15.385-7.692-38.462-7.692s-23.077 7.692-38.461 7.692c-15.385 0-23.077-7.692-23.077-23.076 0 0 0-100 30.769-100 15.385 0 15.385 15.384 30.769 15.384 15.385 0 15.385-15.384 30.77-15.384zm0-7.693c-10.885 0-16.616 5.731-20.808 9.962-3.769 3.769-5.654 5.423-9.962 5.423-4.307 0-6.192-1.654-9.961-5.423-4.193-4.231-9.923-9.962-20.808-9.962-5.692 0-10.846 2.154-15.385 6.346-3.576 3.308-6.653 7.808-9.384 13.731-4.116 8.962-7.423 21.192-9.769 36.423-3.885 25.308-3.923 50.154-3.923 51.193 0 9.769 2.692 17.423 8.038 22.73 5.308 5.346 12.962 8.039 22.731 8.039 8.423 0 13.423-2.039 17.807-3.846 4.847-2 9.462-3.847 20.654-3.847 11.193 0 15.77 1.885 20.654 3.847 4.423 1.807 9.385 3.846 17.808 3.846 9.769 0 17.423-2.693 22.731-8.039 5.307-5.307 8.038-12.961 8.038-22.73 0-1.039-.038-25.885-3.923-51.154-2.346-15.231-5.615-27.5-9.769-36.423-2.731-5.923-5.808-10.423-9.385-13.731-4.538-4.231-9.692-6.385-15.384-6.385z"/><path d="m450.115 252.092c-3.5-12.038-8.615-23.807-14.73-34-6.347-10.577-13.77-19.423-21.5-25.615-9-7.154-18.231-10.808-27.423-10.808-9.193 0-18.424 3.654-27.385 10.808-7.731 6.192-15.154 15.038-21.5 25.615-6.115 10.193-11.231 21.962-14.731 34-3.692 12.577-5.615 25.462-5.615 37.27 0 9.769 2.692 17.423 8.038 22.73 5.308 5.346 12.962 8.039 22.731 8.039 1.615 0 3.077-.077 4.462-.193-1.5 4.154-2 8.731-1.347 13.193.808 5.615 5.731 9.846 11.423 9.846.577 0 1.193-.039 1.77-.154 2.654-.423 5-1.154 6.961-2.038 2.539 3.923 6.154 6.961 10.654 8.884 1.462.616 2.962.923 4.539.923 1.576 0 3.115-.307 4.538-.923 4.5-1.923 8.115-4.961 10.654-8.884 2 .884 4.308 1.615 6.961 2.038.577.077 1.193.115 1.77.115 5.692 0 10.615-4.23 11.423-9.846.654-4.461.154-9.038-1.346-13.192 1.384.115 2.846.192 4.461.192 9.769 0 17.423-2.692 22.731-8.038 5.346-5.269 8.038-12.923 8.038-22.692 0-11.808-1.923-24.693-5.577-37.27zm-35.923 79.923c-.269 1.923-1.923 3.27-3.807 3.27-.193 0-.385 0-.577-.039-8.77-1.346-11.808-7.423-11.808-7.423s0 10.5-10.038 14.808c-.5.192-1 .307-1.5.307s-1.039-.115-1.5-.307c-10.039-4.308-10.039-14.808-10.039-14.808s-3.038 6.077-11.808 7.423c-.192.039-.384.039-.577.039-1.884 0-3.538-1.347-3.807-3.27-.769-5.461.807-10.653 3.5-14.346 1.269-.461 2.461-.923 3.577-1.384 4.846-2 9.461-3.847 20.654-3.847 11.192 0 15.769 1.885 20.653 3.847 1.154.461 2.308.961 3.577 1.384 2.693 3.693 4.308 8.885 3.5 14.346zm10.731-19.577c-15.385 0-15.385-7.692-38.461-7.692-23.077 0-23.077 7.692-38.462 7.692s-23.077-7.692-23.077-23.076c0-46.154 30.769-100 61.539-100 30.769 0 61.538 53.846 61.538 100 0 15.384-7.692 23.076-23.077 23.076z"/><path d="m271.077 189.361c23.077 0 30.769 7.693 30.769 30.77v46.154c0 30.769-15.384 46.153-46.154 46.153-23.077 0-50-15.384-50-42.307 0-7.693 3.847-19.231 19.231-19.231 11.539 0 15.385-3.846 15.385-15.385v-15.384c0-23.077 7.692-30.77 30.769-30.77zm0-7.692c-14.192 0-23.269 2.769-29.462 9-6.23 6.192-9 15.269-9 29.462v15.384c0 5.193-.923 6.385-1.115 6.577-.192.193-1.385 1.116-6.577 1.116-18.615 0-26.923 13.538-26.923 26.923 0 14.73 6.885 28 19.423 37.384 10.692 8 24.616 12.616 38.269 12.616 17.423 0 30.885-4.654 40.039-13.808s13.808-22.615 13.808-40.038v-46.154c0-14.193-2.77-23.27-9-29.462-6.193-6.231-15.27-9-29.462-9z"/></g></svg>