<svg fill="none" height="501" viewBox="0 0 800 501" width="800" xmlns="http://www.w3.org/2000/svg"><path d="m0 .900024h800v500h-800z" fill="#f5f2f0"/><path d="m387.738 189.745v3.857l5.578 2.717c1.04.525 1.964 1.253 2.717 2.143.44.938.639 1.971.579 3.006v4.297l4.13-1.204c.974-.353 2.022-.454 3.046-.296 1.065.474 2.024 1.155 2.821 2.004l4.17 4.588 3.707-1.084v-27.859z" fill="#337dff"/><g fill="#222"><path d="m543.446 289.154h-34.173v-6.314c3.719 0 6.006-.143 6.864-.428.857-.286 1.285-1.097 1.285-2.433v-79.479c.056-1.126-.142-2.25-.579-3.29-.729-.835-1.663-1.466-2.71-1.83l-5.433-2.716v-3.887l26.608-7.877.134 51.775c2.99-3.86 6.734-7.072 11.005-9.441 3.859-2.291 8.254-3.523 12.742-3.573 6.178 0 11.088 2.05 14.729 6.151 3.522 4.193 5.285 9.817 5.288 16.872v37.318c0 1.246.475 2.004 1.431 2.317.857.386 3.097.579 6.719.579v6.256h-34.179v-6.314c3.622 0 5.91-.193 6.863-.579.858-.284 1.286-1.042 1.286-2.317v-33.97c0-4.672-1.006-8.248-3.017-10.727-2.012-2.479-4.935-3.719-8.77-3.719-2.589.027-5.141.62-7.477 1.738-2.542 1.175-4.836 2.825-6.759 4.86v41.876c0 1.34.428 2.151 1.285 2.433.858.282 3.146.425 6.864.429z"/><path clip-rule="evenodd" d="m489.823 313.463c7.723-5.051 11.584-11.532 11.584-19.444.004-5.908-2.102-10.429-6.319-13.565-4.193-3.05-10.246-4.576-18.158-4.576h-27.454c-1.49.071-2.958-.385-4.147-1.286-.501-.387-.903-.887-1.176-1.458-.272-.571-.407-1.199-.394-1.831.035-1.51.659-2.946 1.738-4.003 1.046-1.239 2.809-2.525 5.288-3.857 1.884.456 3.795.789 5.722.996 1.797.287 3.614.43 5.433.429 8.295.003 15.301-2.236 21.02-6.719 5.718-4.402 8.578-9.692 8.578-15.87-.003-2.303-.439-4.584-1.286-6.725-.931-2.208-2.236-4.238-3.858-6.001.817-.748 1.731-1.383 2.717-1.888.743-.421 1.574-.667 2.427-.718.447-.006.89.093 1.291.29.59.515 1.117 1.099 1.57 1.737.875 1.096 1.952 2.012 3.174 2.699 1.012.508 2.129.77 3.261.765 1.039.017 2.07-.18 3.03-.579.959-.398 1.827-.99 2.548-1.738 1.44-1.549 2.21-3.603 2.143-5.717-.004-2.857-.813-5.097-2.427-6.719-1.718-1.525-4.054-2.287-7.008-2.287-2.379-.004-4.953.901-7.721 2.716-2.769 1.815-5.676 4.531-8.723 8.15-2.827-2.179-6.026-3.828-9.441-4.866-3.654-1.155-7.463-1.741-11.295-1.737-8.294 0-15.3 2.193-21.019 6.579-5.719 4.483-8.578 9.814-8.578 15.992-.017 4.036 1.222 7.977 3.545 11.277 2.466 3.515 5.853 6.282 9.788 7.999-3.969 1.908-7.041 4.151-9.215 6.731-2.068 2.392-3.224 5.439-3.261 8.601-.051 2.817.904 5.561 2.693 7.738 1.894 2.428 4.442 4.265 7.345 5.294-5.406.765-9.625 2.29-12.656 4.576-3.035 2.189-4.552 4.906-4.552 8.149 0 5.622 3.145 10.103 9.435 13.444 6.209 3.239 14.511 4.859 24.906 4.859 11.819 0 21.637-2.479 29.452-7.437zm-6.29-19.577c2.097 1.251 3.145 3.267 3.145 6.047 0 3.935-2.288 7.111-6.863 9.528-4.676 2.398-10.683 3.597-18.019 3.597-6.58 0-11.822-1.008-15.726-3.024-3.908-2.112-5.862-4.942-5.862-8.491-.061-2.032.595-4.022 1.854-5.618 1.147-1.651 3.006-3.001 5.578-4.055h26.047c4.467 0 7.749.672 9.846 2.016zm-30.298-63.244c2.015-2.656 4.894-3.985 8.636-3.985 3.722 0 6.647 1.329 8.775 3.985 2.012 2.753 3.017 6.597 3.017 11.532 0 4.835-1.005 8.582-3.017 11.243-2.108 2.745-5.034 4.12-8.775 4.124-3.742.004-6.621-1.325-8.636-3.985-2.008-2.653-3.014-6.447-3.018-11.382s1.002-8.779 3.018-11.532z" fill-rule="evenodd"/><path clip-rule="evenodd" d="m278.801 319.469h-38.471v-6.29c3.626 0 5.916-.143 6.869-.428.858-.386 1.286-1.197 1.286-2.433v-72.076c.061-1.035-.138-2.069-.579-3.007-.753-.889-1.676-1.618-2.716-2.143l-5.578-2.716v-3.852l26.742-7.825v13.687c2.404-3.732 5.632-6.863 9.435-9.152 3.742-2.306 8.046-3.542 12.441-3.573 7.912 0 14.442 3.089 19.589 9.267 5.062 6.209 7.59 14.036 7.582 23.481 0 10.962-3.191 20.066-9.574 27.31-6.487 7.243-14.496 10.865-24.026 10.865-2.961.02-5.89-.614-8.578-1.859-2.614-1.102-4.956-2.76-6.863-4.859v26.307c-.036.6.147 1.192.516 1.667.369.474.898.798 1.488.911 1.332.285 4.807.428 10.425.428zm18.442-63.486c0-7.53-1.477-13.536-4.431-18.019-3.051-4.476-7.198-6.715-12.441-6.719-2.746.018-5.446.706-7.866 2.004-2.396 1.184-4.495 2.89-6.145 4.993v36.744c1.245 2.3 3.133 4.188 5.433 5.433 2.345 1.353 5.013 2.045 7.72 2.004 5.24 0 9.53-2.43 12.87-7.292 3.24-4.85 4.86-11.233 4.86-19.148z" fill-rule="evenodd"/><path d="m362.131 289.154h-38.465v-6.314c3.62 0 5.914-.191 6.864-.579.857-.284 1.286-1.042 1.286-2.317v-41.702c.057-1.035-.142-2.068-.58-3.007-.754-.889-1.68-1.618-2.722-2.143l-5.572-2.716v-3.852l26.736-7.825v19.838c3.437-5.815 7.013-10.449 10.727-13.901 3.719-3.336 7.194-5.004 10.426-5.004 3.336 0 6.006.953 8.01 2.861 1.927 2.004 2.891 4.635 2.891 7.894.085 2.539-.84 5.007-2.572 6.864-.83.872-1.831 1.564-2.94 2.033-1.109.47-2.302.706-3.507.695-1.028.002-2.046-.194-3-.579-1.259-.587-2.419-1.369-3.435-2.317-.709-.682-1.475-1.304-2.287-1.859-.56-.189-1.147-.285-1.738-.284-1.622.093-3.672 1.189-6.151 3.29-2.494 2.207-4.66 4.758-6.435 7.576v34.034c-.047.586.135 1.167.51 1.62.374.453.91.743 1.494.807 1.332.386 4.807.579 10.426.579z"/><path d="m632.366 287.584c3.9-1.907 7.569-4.863 11.005-8.868l-4.576-5.27c-1.791 1.963-3.864 3.65-6.151 5.004-1.834 1.029-3.903 1.569-6.006 1.57-3.053 0-5.375-.858-7.003-2.572-1.627-1.715-2.432-4.147-2.432-7.292v-41.182h20.735v-7.883h-20.73v-22.734l-17.874 5.288v17.446h-9.151v7.883h9.151v44.309c0 5.24 1.859 9.436 5.578 12.587 3.622 3.143 8.387 4.714 14.295 4.714 4.561.046 9.069-.981 13.159-3z"/><path d="m396.6 238.242c.061-1.035-.138-2.069-.579-3.007-.751-.891-1.675-1.62-2.716-2.143l-5.572-2.716v-3.852l26.736-7.825v61.303c0 1.246.475 2.004 1.43 2.317.858.386 3.097.579 6.719.579v6.256h-34.173v-6.314c3.62 0 5.914-.191 6.864-.579.857-.284 1.285-1.042 1.285-2.317z"/><path d="m226.493 279.973c-.004 1.259.473 2.031 1.431 2.317.857.367 3.1.55 6.73.55v6.314h-26.024v-10.866c-2.711 3.685-6.172 6.754-10.153 9.007-3.799 2.14-8.082 3.273-12.442 3.289-6.197 0-11.105-2.096-14.723-6.29-3.626-4.097-5.439-9.673-5.439-16.727v-29.314c.058-1.034-.141-2.067-.579-3.006-.754-.888-1.677-1.617-2.717-2.143l-5.577-2.717v-3.863l26.724-7.825v45.723c0 4.768.966 8.344 2.896 10.727 1.916 2.479 4.744 3.718 8.486 3.718 2.499-.007 4.961-.602 7.188-1.738 2.379-1.172 4.525-2.77 6.33-4.714v-34.162c.061-1.035-.138-2.068-.579-3.006-.752-.889-1.676-1.618-2.716-2.143l-5.578-2.717v-3.863l26.742-7.825z"/></g></svg>