<svg fill="none" height="501" viewBox="0 0 800 501" width="800" xmlns="http://www.w3.org/2000/svg" xmlns:xlink="http://www.w3.org/1999/xlink"><linearGradient id="a" gradientUnits="userSpaceOnUse" x1="207.922" x2="592.078" y1="230.976" y2="230.976"><stop offset="0" stop-color="#fd9d52"/><stop offset=".5" stop-color="#dd45d3"/><stop offset="1" stop-color="#943cff"/></linearGradient><path d="m0 .899902h800v500h-800z" fill="#000"/><path d="m484.886 292.741c-3.302 0-5.977-2.675-5.977-5.977v-111.575c0-3.302 2.675-5.977 5.977-5.977s5.977 2.675 5.977 5.977v111.575c.002 3.3-2.675 5.977-5.977 5.977zm102.222-15.656c2.137-2.517 1.83-6.288-.686-8.425-2.517-2.137-6.288-1.83-8.425.687-6.176 7.27-15.422 11.44-25.369 11.44-16.479 0-29.886-13.406-29.886-29.885s13.407-29.885 29.886-29.885c13.39 0 24.577 9.621 27.005 22.314h-36.568c-3.302 0-5.977 2.676-5.977 5.977 0 3.302 2.675 5.977 5.977 5.977h43.036c3.301 0 5.977-2.675 5.977-5.977v-.797c0-21.754-17.697-39.45-39.45-39.45-23.072 0-41.841 18.769-41.841 41.841s18.769 41.841 41.841 41.841c13.463-.002 26.029-5.709 34.48-15.658zm-128.123 9.679v-38.253c0-21.754-17.696-39.45-39.45-39.45-23.071 0-41.841 18.769-41.841 41.841s18.77 41.841 41.841 41.841c3.302 0 5.977-2.675 5.977-5.977s-2.675-5.977-5.977-5.977c-16.478 0-29.885-13.406-29.885-29.885s13.407-29.886 29.885-29.886c15.161 0 27.496 12.334 27.496 27.496v38.254c0 3.302 2.676 5.977 5.977 5.977 3.302-.004 5.977-2.681 5.977-5.981zm-180.93-17.933c0-5.834-2.142-13.791-12.351-18.571-6.125-2.87-13.81-4.049-21.243-5.189-17.414-2.67-23.598-4.9-23.598-12.104 0-7.847 10.883-11.954 21.634-11.954 6.774 0 16.51 1.366 24.427 7.876 2.55 2.096 6.317 1.729 8.414-.821 2.096-2.55 1.729-6.315-.819-8.414-10.65-8.76-23.292-10.599-32.021-10.599-23.077 0-33.587 12.394-33.587 23.909 0 5.873 2.151 13.883 12.398 18.699 6.159 2.894 13.878 4.076 21.343 5.221 17.306 2.654 23.451 4.857 23.451 11.944 0 7.15-8.536 11.954-21.238 11.954-13.004 0-22.915-5.273-27.664-8.418-2.753-1.821-6.46-1.067-8.283 1.686s-1.068 6.46 1.685 8.283c10.135 6.71 22.302 10.403 34.262 10.403 22.927.005 33.19-12.003 33.19-23.905zm86.667 6.269c1.826-2.75 1.08-6.459-1.67-8.287-2.749-1.827-6.458-1.08-8.287 1.669-5.119 7.705-13.687 12.303-22.914 12.303-16.479 0-29.886-13.406-29.886-29.885s13.407-29.885 29.886-29.885c9.229 0 17.795 4.599 22.914 12.303 1.829 2.75 5.538 3.498 8.287 1.67 2.75-1.827 3.498-5.538 1.67-8.287-7.341-11.047-19.631-17.642-32.871-17.642-23.072 0-41.842 18.769-41.842 41.841s18.77 41.841 41.842 41.841c13.242 0 25.53-6.594 32.871-17.641z" fill="url(#a)"/></svg>