<svg fill="none" height="501" viewBox="0 0 800 501" width="800" xmlns="http://www.w3.org/2000/svg"><path d="m0 .900024h800v500h-800z" fill="#1b1726"/><g fill="#f3f3f4"><path d="m127 261.938v-59.375c0-.415.165-.812.458-1.105s.69-.458 1.104-.458h27.963c.218-.001.434.044.633.131.2.088.378.217.525.379.146.161.257.352.324.559.068.208.091.427.068.644l-5.937 59.375c-.038.385-.217.743-.503 1.004-.287.261-.66.407-1.048.408h-22.025c-.414 0-.811-.165-1.104-.458s-.458-.69-.458-1.104z"/><path d="m170.613 202.413-2.188 21.875c-.021.216.004.434.072.641.068.206.179.396.325.557s.324.29.522.379c.199.088.414.134.631.135h55.475c.414 0 .812-.165 1.105-.458s.458-.69.458-1.104v-21.876c0-.414-.165-.811-.458-1.104s-.691-.458-1.105-.458h-53.287c-.388.001-.761.147-1.048.408-.286.261-.465.619-.502 1.005z"/><path d="m146.85 301h-18.288c-.414 0-.811-.165-1.104-.458s-.458-.69-.458-1.104v-21.876c0-.414.165-.811.458-1.104s.69-.458 1.104-.458h20.475c.218.001.434.047.633.135.199.089.378.217.524.378.147.161.259.351.329.557.07.207.096.425.077.642l-2.188 21.875c-.04.387-.221.746-.51 1.006-.288.261-.663.406-1.052.407z"/></g><path d="m166.863 239.913-2.188 21.875c-.021.216.004.434.072.641.068.206.179.396.325.557s.324.29.522.379c.199.088.414.134.631.135h59.225c.414 0 .812-.165 1.105-.458s.458-.69.458-1.104v-21.876c0-.414-.165-.811-.458-1.104s-.691-.458-1.105-.458h-57.037c-.388.001-.761.147-1.048.408-.286.261-.465.619-.502 1.005z" fill="#c8c8cc"/><path d="m161.863 277.413-2.188 21.875c-.021.216.004.434.072.641.068.206.179.396.325.557s.324.29.522.379c.199.088.414.134.631.135h64.225c.414 0 .812-.165 1.105-.458s.458-.69.458-1.104v-21.876c0-.414-.165-.811-.458-1.104s-.691-.458-1.105-.458h-62.037c-.388.001-.761.147-1.048.408-.286.261-.465.619-.502 1.005z" fill="#716f79"/><g fill="#f3f3f4"><path clip-rule="evenodd" d="m673.9 254.425v-6.375c0-27.688-7.762-35.625-26.838-35.625-19.075 0-26.849 7.937-26.849 35.625v6.375c0 27.75 7.787 35.687 26.849 35.687 19.063 0 26.838-7.937 26.838-35.687zm-42 0v-6.313c0-21.375 4.613-24.162 15.162-24.162 10.55 0 15.15 2.787 15.15 24.162v6.313c0 21.375-4.587 24.162-15.15 24.162-10.562 0-15.162-2.787-15.162-24.162z" fill-rule="evenodd"/><path d="m593.875 268.5c.068-.421.295-.8.635-1.058.34-.259.766-.377 1.19-.329h8.087c1.075 0 1.563.637 1.451 1.762-1.613 15.7-9.75 21.25-26.25 21.25-18.963 0-27.001-8.037-27.001-35.625v-6.437c0-27.638 8.038-35.625 27.001-35.625 16.45 0 24.587 5.575 26.25 21.25.112 1.125-.376 1.762-1.451 1.762h-8.087c-.424.047-.85-.07-1.19-.329-.34-.258-.567-.637-.635-1.058-1.25-8.363-5.725-10.075-14.512-10.075-10.238 0-15.651 3.212-15.651 24.112v6.313c0 20.9 5.413 24.162 15.651 24.162 9.1.013 13.237-1.75 14.512-10.075z"/><path d="m509.25 290.112c18.9 0 27.85-7.95 27.85-21.7 0-16.025-13.762-20.525-28.225-23.387-10.262-2.088-13.75-5.675-13.75-11.838 0-6.35 5.15-10 13.613-10 9.162 0 14.412 3.538 15.262 8.363.014.197.067.389.156.566s.212.334.362.463.324.227.511.288c.188.062.386.086.584.07h7.662c.22.017.441-.018.645-.102.205-.084.387-.214.532-.38.146-.166.25-.363.306-.577.056-.213.062-.437.017-.653-1.287-12.75-10.712-18.75-26.15-18.75-16.875 0-25.125 8.15-25.125 20.737 0 14.575 11.85 19.5 25.35 22.5 11.188 2.463 16.438 4.713 16.438 12.963 0 7.237-5.838 10.562-16.063 10.562-9.375 0-14.85-3.162-15.912-8.475-.163-.85-.65-1.6-1.613-1.6h-8.225c-.232.01-.459.07-.666.176-.206.106-.387.256-.53.44-.142.183-.244.395-.296.621-.053.226-.055.461-.008.688 1.175 13.025 10.613 19.025 27.275 19.025z"/><path d="m327.362 222.612v-7.5c.013-.211-.019-.423-.094-.622-.074-.199-.189-.38-.337-.531-.148-.152-.327-.271-.523-.35-.197-.079-.409-.116-.621-.109h-47.137c-.215-.013-.43.02-.632.097-.201.076-.384.195-.537.347-.152.152-.27.335-.347.537-.076.201-.109.416-.097.631v71.725c-.012.216.021.431.097.632.077.202.195.385.347.537.153.152.336.271.537.347.202.077.417.11.632.097h8.75c.215.013.429-.02.63-.097.201-.076.383-.195.535-.347.151-.153.268-.336.343-.538.075-.201.107-.416.092-.631v-31.012h34.287c.216.013.431-.02.632-.097.202-.076.385-.195.537-.347s.271-.335.347-.537c.077-.201.11-.416.097-.632v-7.6c.013-.215-.02-.43-.097-.631-.076-.202-.195-.385-.347-.537s-.335-.271-.537-.347c-.201-.077-.416-.11-.632-.097h-34.287v-20.788h36.75c.214.013.428-.02.629-.095.2-.076.382-.193.535-.344.152-.151.27-.333.348-.533.077-.2.111-.413.1-.628z"/><path d="m375.45 277.738v-53.475h18.112c.214.012.429-.021.629-.096.201-.076.383-.193.535-.344s.271-.333.348-.532c.078-.2.112-.414.101-.628v-7.5c.013-.216-.02-.431-.097-.632-.076-.202-.195-.385-.347-.537s-.335-.271-.537-.347c-.201-.077-.416-.11-.632-.097h-48.212c-.215-.013-.429.02-.63.097-.201.076-.383.195-.535.348-.151.152-.268.335-.343.537-.075.201-.107.416-.092.631v7.5c-.013.213.02.427.096.627s.193.381.344.532.333.269.533.345.414.108.627.096h18.113v53.475h-18.113c-.213-.013-.427.019-.627.095s-.382.194-.533.345-.268.333-.344.533c-.076.199-.109.413-.096.627v7.5c-.015.214.017.429.092.631.075.201.192.384.343.537.152.152.334.271.535.347.201.077.415.11.63.097h48.2c.215.013.43-.02.632-.097.201-.076.384-.195.536-.347.153-.152.271-.335.348-.537.076-.201.109-.416.096-.631v-7.5c.011-.214-.023-.428-.1-.628-.078-.2-.196-.382-.348-.533-.153-.151-.335-.268-.535-.344-.201-.075-.415-.108-.629-.095z"/><path clip-rule="evenodd" d="m468.538 288.5h-8.838c-.405.055-.816-.043-1.153-.274s-.577-.579-.672-.976l-3.587-13.338h-27.75l-3.588 13.338c-.095.397-.335.745-.672.976s-.748.329-1.153.274h-8.75c-1.175 0-1.6-.75-1.25-1.825l20-71.888c.133-.384.388-.715.727-.94.339-.226.742-.335 1.148-.31h14.9c.406-.025.809.084 1.148.31.339.225.594.556.727.94l20.088 71.888c.225 1.075-.15 1.825-1.325 1.825zm-16.988-25-10.062-37.613h-2.15l-10.063 37.613z" fill-rule="evenodd"/></g></svg>